solid OpenSCAD_Model
  facet normal -1 0 0
    outer loop
      vertex -0.5 1.25 0
      vertex -0.5 4.25 1
      vertex -0.5 4.25 0
    endloop
  endfacet
  facet normal -1 -0 0
    outer loop
      vertex -0.5 4.25 1
      vertex -0.5 1.25 0
      vertex -0.5 1.25 1
    endloop
  endfacet
  facet normal -0 0 1
    outer loop
      vertex -0.5 4.25 1
      vertex 0.5 1.25 1
      vertex 0.5 4.25 1
    endloop
  endfacet
  facet normal 0 0 1
    outer loop
      vertex 0.5 1.25 1
      vertex -0.5 4.25 1
      vertex -0.5 1.25 1
    endloop
  endfacet
  facet normal 1 -0 0
    outer loop
      vertex 0.5 1.25 1
      vertex 0.5 4.25 0
      vertex 0.5 4.25 1
    endloop
  endfacet
  facet normal 1 0 0
    outer loop
      vertex 0.5 4.25 0
      vertex 0.5 1.25 1
      vertex 0.5 1.25 0
    endloop
  endfacet
  facet normal 0 1 -0
    outer loop
      vertex 0.5 4.25 0
      vertex -0.5 4.25 1
      vertex 0.5 4.25 1
    endloop
  endfacet
  facet normal 0 1 0
    outer loop
      vertex -0.5 4.25 1
      vertex 0.5 4.25 0
      vertex -0.5 4.25 0
    endloop
  endfacet
  facet normal 0 0 -1
    outer loop
      vertex -0.5 1.25 0
      vertex 0.5 4.25 0
      vertex 0.5 1.25 0
    endloop
  endfacet
  facet normal -0 0 -1
    outer loop
      vertex 0.5 4.25 0
      vertex -0.5 1.25 0
      vertex -0.5 4.25 0
    endloop
  endfacet
  facet normal 0 -1 0
    outer loop
      vertex -0.5 1.25 0
      vertex 0.5 1.25 1
      vertex -0.5 1.25 1
    endloop
  endfacet
  facet normal 0 -1 -0
    outer loop
      vertex 0.5 1.25 1
      vertex -0.5 1.25 0
      vertex 0.5 1.25 0
    endloop
  endfacet
  facet normal -1 0 0
    outer loop
      vertex -0.5 -4.25 0
      vertex -0.5 -1.25 1
      vertex -0.5 -1.25 0
    endloop
  endfacet
  facet normal -1 -0 0
    outer loop
      vertex -0.5 -1.25 1
      vertex -0.5 -4.25 0
      vertex -0.5 -4.25 1
    endloop
  endfacet
  facet normal -0 0 1
    outer loop
      vertex -0.5 -1.25 1
      vertex 0.5 -4.25 1
      vertex 0.5 -1.25 1
    endloop
  endfacet
  facet normal 0 0 1
    outer loop
      vertex 0.5 -4.25 1
      vertex -0.5 -1.25 1
      vertex -0.5 -4.25 1
    endloop
  endfacet
  facet normal 1 -0 0
    outer loop
      vertex 0.5 -4.25 1
      vertex 0.5 -1.25 0
      vertex 0.5 -1.25 1
    endloop
  endfacet
  facet normal 1 0 0
    outer loop
      vertex 0.5 -1.25 0
      vertex 0.5 -4.25 1
      vertex 0.5 -4.25 0
    endloop
  endfacet
  facet normal 0 0 -1
    outer loop
      vertex -0.5 -4.25 0
      vertex 0.5 -1.25 0
      vertex 0.5 -4.25 0
    endloop
  endfacet
  facet normal -0 0 -1
    outer loop
      vertex 0.5 -1.25 0
      vertex -0.5 -4.25 0
      vertex -0.5 -1.25 0
    endloop
  endfacet
  facet normal 0 -1 0
    outer loop
      vertex -0.5 -4.25 0
      vertex 0.5 -4.25 1
      vertex -0.5 -4.25 1
    endloop
  endfacet
  facet normal 0 -1 -0
    outer loop
      vertex 0.5 -4.25 1
      vertex -0.5 -4.25 0
      vertex 0.5 -4.25 0
    endloop
  endfacet
  facet normal 0 1 -0
    outer loop
      vertex 0.5 -1.25 0
      vertex -0.5 -1.25 1
      vertex 0.5 -1.25 1
    endloop
  endfacet
  facet normal 0 1 0
    outer loop
      vertex -0.5 -1.25 1
      vertex 0.5 -1.25 0
      vertex -0.5 -1.25 0
    endloop
  endfacet
endsolid OpenSCAD_Model
