solid OpenSCAD_Model
  facet normal -1 0 0
    outer loop
      vertex 1 1.25 0
      vertex 1 4.25 1
      vertex 1 4.25 0
    endloop
  endfacet
  facet normal -1 -0 0
    outer loop
      vertex 1 4.25 1
      vertex 1 1.25 0
      vertex 1 1.25 1
    endloop
  endfacet
  facet normal -0 0 1
    outer loop
      vertex 1 4.25 1
      vertex 2 1.25 1
      vertex 2 4.25 1
    endloop
  endfacet
  facet normal 0 0 1
    outer loop
      vertex 2 1.25 1
      vertex 1 4.25 1
      vertex 1 1.25 1
    endloop
  endfacet
  facet normal 1 -0 0
    outer loop
      vertex 2 1.25 1
      vertex 2 4.25 0
      vertex 2 4.25 1
    endloop
  endfacet
  facet normal 1 0 0
    outer loop
      vertex 2 4.25 0
      vertex 2 1.25 1
      vertex 2 1.25 0
    endloop
  endfacet
  facet normal 0 1 -0
    outer loop
      vertex 2 4.25 0
      vertex 1 4.25 1
      vertex 2 4.25 1
    endloop
  endfacet
  facet normal 0 1 0
    outer loop
      vertex 1 4.25 1
      vertex 2 4.25 0
      vertex 1 4.25 0
    endloop
  endfacet
  facet normal 0 0 -1
    outer loop
      vertex 1 1.25 0
      vertex 2 4.25 0
      vertex 2 1.25 0
    endloop
  endfacet
  facet normal -0 0 -1
    outer loop
      vertex 2 4.25 0
      vertex 1 1.25 0
      vertex 1 4.25 0
    endloop
  endfacet
  facet normal 0 -1 0
    outer loop
      vertex 1 1.25 0
      vertex 2 1.25 1
      vertex 1 1.25 1
    endloop
  endfacet
  facet normal 0 -1 -0
    outer loop
      vertex 2 1.25 1
      vertex 1 1.25 0
      vertex 2 1.25 0
    endloop
  endfacet
  facet normal -1 0 0
    outer loop
      vertex 1 -4.25 0
      vertex 1 -1.25 1
      vertex 1 -1.25 0
    endloop
  endfacet
  facet normal -1 -0 0
    outer loop
      vertex 1 -1.25 1
      vertex 1 -4.25 0
      vertex 1 -4.25 1
    endloop
  endfacet
  facet normal -0 0 1
    outer loop
      vertex 1 -1.25 1
      vertex 2 -4.25 1
      vertex 2 -1.25 1
    endloop
  endfacet
  facet normal 0 0 1
    outer loop
      vertex 2 -4.25 1
      vertex 1 -1.25 1
      vertex 1 -4.25 1
    endloop
  endfacet
  facet normal 1 -0 0
    outer loop
      vertex 2 -4.25 1
      vertex 2 -1.25 0
      vertex 2 -1.25 1
    endloop
  endfacet
  facet normal 1 0 0
    outer loop
      vertex 2 -1.25 0
      vertex 2 -4.25 1
      vertex 2 -4.25 0
    endloop
  endfacet
  facet normal 0 0 -1
    outer loop
      vertex 1 -4.25 0
      vertex 2 -1.25 0
      vertex 2 -4.25 0
    endloop
  endfacet
  facet normal -0 0 -1
    outer loop
      vertex 2 -1.25 0
      vertex 1 -4.25 0
      vertex 1 -1.25 0
    endloop
  endfacet
  facet normal 0 -1 0
    outer loop
      vertex 1 -4.25 0
      vertex 2 -4.25 1
      vertex 1 -4.25 1
    endloop
  endfacet
  facet normal 0 -1 -0
    outer loop
      vertex 2 -4.25 1
      vertex 1 -4.25 0
      vertex 2 -4.25 0
    endloop
  endfacet
  facet normal 0 1 -0
    outer loop
      vertex 2 -1.25 0
      vertex 1 -1.25 1
      vertex 2 -1.25 1
    endloop
  endfacet
  facet normal 0 1 0
    outer loop
      vertex 1 -1.25 1
      vertex 2 -1.25 0
      vertex 1 -1.25 0
    endloop
  endfacet
endsolid OpenSCAD_Model
