solid OpenSCAD_Model
  facet normal -1 0 0
    outer loop
      vertex 3 -6 0
      vertex 3 -3 1
      vertex 3 -3 0
    endloop
  endfacet
  facet normal -1 -0 0
    outer loop
      vertex 3 -3 1
      vertex 3 -6 0
      vertex 3 -6 1
    endloop
  endfacet
  facet normal 0 0 1
    outer loop
      vertex 6 10 1
      vertex 4 6 1
      vertex 6 -6 1
    endloop
  endfacet
  facet normal -0 0 1
    outer loop
      vertex 1 10 1
      vertex 4 6 1
      vertex 6 10 1
    endloop
  endfacet
  facet normal 0 0 1
    outer loop
      vertex 4 6 1
      vertex 1 10 1
      vertex 1 6 1
    endloop
  endfacet
  facet normal -0 0 1
    outer loop
      vertex 4 -3 1
      vertex 6 -6 1
      vertex 4 6 1
    endloop
  endfacet
  facet normal 0 0 1
    outer loop
      vertex 3 -6 1
      vertex 4 -3 1
      vertex 3 -3 1
    endloop
  endfacet
  facet normal 0 0 1
    outer loop
      vertex 4 -3 1
      vertex 3 -6 1
      vertex 6 -6 1
    endloop
  endfacet
  facet normal 1 -0 0
    outer loop
      vertex 6 -6 1
      vertex 6 10 0
      vertex 6 10 1
    endloop
  endfacet
  facet normal 1 0 0
    outer loop
      vertex 6 10 0
      vertex 6 -6 1
      vertex 6 -6 0
    endloop
  endfacet
  facet normal 0 1 -0
    outer loop
      vertex 4 -3 0
      vertex 3 -3 1
      vertex 4 -3 1
    endloop
  endfacet
  facet normal 0 1 0
    outer loop
      vertex 3 -3 1
      vertex 4 -3 0
      vertex 3 -3 0
    endloop
  endfacet
  facet normal 0 0 -1
    outer loop
      vertex 4 6 0
      vertex 6 -6 0
      vertex 4 -3 0
    endloop
  endfacet
  facet normal 0 0 -1
    outer loop
      vertex 3 -6 0
      vertex 4 -3 0
      vertex 6 -6 0
    endloop
  endfacet
  facet normal -0 0 -1
    outer loop
      vertex 4 -3 0
      vertex 3 -6 0
      vertex 3 -3 0
    endloop
  endfacet
  facet normal 0 0 -1
    outer loop
      vertex 6 -6 0
      vertex 4 6 0
      vertex 6 10 0
    endloop
  endfacet
  facet normal 0 0 -1
    outer loop
      vertex 1 10 0
      vertex 4 6 0
      vertex 1 6 0
    endloop
  endfacet
  facet normal 0 0 -1
    outer loop
      vertex 4 6 0
      vertex 1 10 0
      vertex 6 10 0
    endloop
  endfacet
  facet normal 0 -1 0
    outer loop
      vertex 3 -6 0
      vertex 6 -6 1
      vertex 3 -6 1
    endloop
  endfacet
  facet normal 0 -1 -0
    outer loop
      vertex 6 -6 1
      vertex 3 -6 0
      vertex 6 -6 0
    endloop
  endfacet
  facet normal -1 0 0
    outer loop
      vertex 4 -3 0
      vertex 4 6 1
      vertex 4 6 0
    endloop
  endfacet
  facet normal -1 -0 0
    outer loop
      vertex 4 6 1
      vertex 4 -3 0
      vertex 4 -3 1
    endloop
  endfacet
  facet normal 0 -1 0
    outer loop
      vertex 1 6 0
      vertex 4 6 1
      vertex 1 6 1
    endloop
  endfacet
  facet normal 0 -1 -0
    outer loop
      vertex 4 6 1
      vertex 1 6 0
      vertex 4 6 0
    endloop
  endfacet
  facet normal -1 0 0
    outer loop
      vertex 1 6 0
      vertex 1 10 1
      vertex 1 10 0
    endloop
  endfacet
  facet normal -1 -0 0
    outer loop
      vertex 1 10 1
      vertex 1 6 0
      vertex 1 6 1
    endloop
  endfacet
  facet normal 0 1 -0
    outer loop
      vertex 6 10 0
      vertex 1 10 1
      vertex 6 10 1
    endloop
  endfacet
  facet normal 0 1 0
    outer loop
      vertex 1 10 1
      vertex 6 10 0
      vertex 1 10 0
    endloop
  endfacet
endsolid OpenSCAD_Model
