solid OpenSCAD_Model
  facet normal 0.891007 0.45399 0
    outer loop
      vertex 4.81931 1.70312 1
      vertex 4.70523 1.92701 0
      vertex 4.70523 1.92701 1
    endloop
  endfacet
  facet normal 0.891007 0.45399 0
    outer loop
      vertex 4.70523 1.92701 0
      vertex 4.81931 1.70312 1
      vertex 4.81931 1.70312 0
    endloop
  endfacet
  facet normal 0.338738 0.940881 -0
    outer loop
      vertex 2.6725 3.71911 0
      vertex 2.43607 3.80423 1
      vertex 2.6725 3.71911 1
    endloop
  endfacet
  facet normal 0.338738 0.940881 0
    outer loop
      vertex 2.43607 3.80423 1
      vertex 2.6725 3.71911 0
      vertex 2.43607 3.80423 0
    endloop
  endfacet
  facet normal 0.509043 0.860741 -0
    outer loop
      vertex 3.34331 3.37731 0
      vertex 3.12701 3.50523 1
      vertex 3.34331 3.37731 1
    endloop
  endfacet
  facet normal 0.509043 0.860741 0
    outer loop
      vertex 3.12701 3.50523 1
      vertex 3.34331 3.37731 0
      vertex 3.12701 3.50523 0
    endloop
  endfacet
  facet normal -0.218143 0.975917 0
    outer loop
      vertex 0.450475 3.92915 0
      vertex 0.20524 3.87433 1
      vertex 0.450475 3.92915 1
    endloop
  endfacet
  facet normal -0.218143 0.975917 0
    outer loop
      vertex 0.20524 3.87433 1
      vertex 0.450475 3.92915 0
      vertex 0.20524 3.87433 0
    endloop
  endfacet
  facet normal 0.45399 -0.891007 0
    outer loop
      vertex 2.90312 -3.61931 0
      vertex 3.12701 -3.50523 1
      vertex 2.90312 -3.61931 1
    endloop
  endfacet
  facet normal 0.45399 -0.891007 0
    outer loop
      vertex 3.12701 -3.50523 1
      vertex 2.90312 -3.61931 0
      vertex 3.12701 -3.50523 0
    endloop
  endfacet
  facet normal 0.156433 -0.987689 0
    outer loop
      vertex 1.70133 -3.96846 0
      vertex 1.94952 -3.92915 1
      vertex 1.70133 -3.96846 1
    endloop
  endfacet
  facet normal 0.156433 -0.987689 0
    outer loop
      vertex 1.94952 -3.92915 1
      vertex 1.70133 -3.96846 0
      vertex 1.94952 -3.92915 0
    endloop
  endfacet
  facet normal 0.940881 0.338738 0
    outer loop
      vertex 5.00423 1.23607 1
      vertex 4.91911 1.4725 0
      vertex 4.91911 1.4725 1
    endloop
  endfacet
  facet normal 0.940881 0.338738 0
    outer loop
      vertex 4.91911 1.4725 0
      vertex 5.00423 1.23607 1
      vertex 5.00423 1.23607 0
    endloop
  endfacet
  facet normal 0.827081 0.562083 0
    outer loop
      vertex 4.57731 2.14331 1
      vertex 4.43607 2.35114 0
      vertex 4.43607 2.35114 1
    endloop
  endfacet
  facet normal 0.827081 0.562083 0
    outer loop
      vertex 4.43607 2.35114 0
      vertex 4.57731 2.14331 1
      vertex 4.57731 2.14331 0
    endloop
  endfacet
  facet normal 0.707107 0.707107 0
    outer loop
      vertex 4.11587 2.73819 1
      vertex 3.93819 2.91587 0
      vertex 3.93819 2.91587 1
    endloop
  endfacet
  facet normal 0.707107 0.707107 0
    outer loop
      vertex 3.93819 2.91587 0
      vertex 4.11587 2.73819 1
      vertex 4.11587 2.73819 0
    endloop
  endfacet
  facet normal -0.0314126 0.999507 0
    outer loop
      vertex 1.2 4 0
      vertex 0.948837 3.99211 1
      vertex 1.2 4 1
    endloop
  endfacet
  facet normal -0.0314126 0.999507 0
    outer loop
      vertex 0.948837 3.99211 1
      vertex 1.2 4 0
      vertex 0.948837 3.99211 0
    endloop
  endfacet
  facet normal 0.156433 0.987689 -0
    outer loop
      vertex 1.94952 3.92915 0
      vertex 1.70133 3.96846 1
      vertex 1.94952 3.92915 1
    endloop
  endfacet
  facet normal 0.156433 0.987689 0
    outer loop
      vertex 1.70133 3.96846 1
      vertex 1.94952 3.92915 0
      vertex 1.70133 3.96846 0
    endloop
  endfacet
  facet normal 0.612908 0.790154 -0
    outer loop
      vertex 3.7497 3.08205 0
      vertex 3.55114 3.23607 1
      vertex 3.7497 3.08205 1
    endloop
  endfacet
  facet normal 0.612908 0.790154 0
    outer loop
      vertex 3.55114 3.23607 1
      vertex 3.7497 3.08205 0
      vertex 3.55114 3.23607 0
    endloop
  endfacet
  facet normal -0.094109 0.995562 0
    outer loop
      vertex 0.948837 3.99211 0
      vertex 0.698667 3.96846 1
      vertex 0.948837 3.99211 1
    endloop
  endfacet
  facet normal -0.094109 0.995562 0
    outer loop
      vertex 0.698667 3.96846 1
      vertex 0.948837 3.99211 0
      vertex 0.698667 3.96846 0
    endloop
  endfacet
  facet normal 0.999506 0.0314127 0
    outer loop
      vertex 5.2 0 1
      vertex 5.19211 0.251162 0
      vertex 5.19211 0.251162 1
    endloop
  endfacet
  facet normal 0.999506 0.0314127 0
    outer loop
      vertex 5.19211 0.251162 0
      vertex 5.2 0 1
      vertex 5.2 0 0
    endloop
  endfacet
  facet normal 0.960294 -0.27899 0
    outer loop
      vertex 5.00423 -1.23607 1
      vertex 5.07433 -0.994759 0
      vertex 5.07433 -0.994759 1
    endloop
  endfacet
  facet normal 0.960294 -0.27899 0
    outer loop
      vertex 5.07433 -0.994759 0
      vertex 5.00423 -1.23607 1
      vertex 5.00423 -1.23607 0
    endloop
  endfacet
  facet normal 0.094109 -0.995562 0
    outer loop
      vertex 1.45116 -3.99211 0
      vertex 1.70133 -3.96846 1
      vertex 1.45116 -3.99211 1
    endloop
  endfacet
  facet normal 0.094109 -0.995562 0
    outer loop
      vertex 1.70133 -3.96846 1
      vertex 1.45116 -3.99211 0
      vertex 1.70133 -3.96846 0
    endloop
  endfacet
  facet normal 0.995562 0.094109 0
    outer loop
      vertex 5.19211 0.251162 1
      vertex 5.16846 0.501332 0
      vertex 5.16846 0.501332 1
    endloop
  endfacet
  facet normal 0.995562 0.094109 0
    outer loop
      vertex 5.16846 0.501332 0
      vertex 5.19211 0.251162 1
      vertex 5.19211 0.251162 0
    endloop
  endfacet
  facet normal 0.917754 0.39715 0
    outer loop
      vertex 4.91911 1.4725 1
      vertex 4.81931 1.70312 0
      vertex 4.81931 1.70312 1
    endloop
  endfacet
  facet normal 0.917754 0.39715 0
    outer loop
      vertex 4.81931 1.70312 0
      vertex 4.91911 1.4725 1
      vertex 4.91911 1.4725 0
    endloop
  endfacet
  facet normal 0.987689 0.156433 0
    outer loop
      vertex 5.16846 0.501332 1
      vertex 5.12915 0.749525 0
      vertex 5.12915 0.749525 1
    endloop
  endfacet
  facet normal 0.987689 0.156433 0
    outer loop
      vertex 5.12915 0.749525 0
      vertex 5.16846 0.501332 1
      vertex 5.16846 0.501332 0
    endloop
  endfacet
  facet normal 0.975917 0.218143 0
    outer loop
      vertex 5.12915 0.749525 1
      vertex 5.07433 0.994759 0
      vertex 5.07433 0.994759 1
    endloop
  endfacet
  facet normal 0.975917 0.218143 0
    outer loop
      vertex 5.07433 0.994759 0
      vertex 5.12915 0.749525 1
      vertex 5.12915 0.749525 0
    endloop
  endfacet
  facet normal 0.860743 0.50904 0
    outer loop
      vertex 4.70523 1.92701 1
      vertex 4.57731 2.14331 0
      vertex 4.57731 2.14331 1
    endloop
  endfacet
  facet normal 0.860743 0.50904 0
    outer loop
      vertex 4.57731 2.14331 0
      vertex 4.70523 1.92701 1
      vertex 4.70523 1.92701 0
    endloop
  endfacet
  facet normal 0.790153 0.61291 0
    outer loop
      vertex 4.43607 2.35114 1
      vertex 4.28205 2.5497 0
      vertex 4.28205 2.5497 1
    endloop
  endfacet
  facet normal 0.790153 0.61291 0
    outer loop
      vertex 4.28205 2.5497 0
      vertex 4.43607 2.35114 1
      vertex 4.43607 2.35114 0
    endloop
  endfacet
  facet normal 0.750113 0.66131 0
    outer loop
      vertex 4.28205 2.5497 1
      vertex 4.11587 2.73819 0
      vertex 4.11587 2.73819 1
    endloop
  endfacet
  facet normal 0.750113 0.66131 0
    outer loop
      vertex 4.11587 2.73819 0
      vertex 4.28205 2.5497 1
      vertex 4.28205 2.5497 0
    endloop
  endfacet
  facet normal 0.218143 0.975917 -0
    outer loop
      vertex 2.19476 3.87433 0
      vertex 1.94952 3.92915 1
      vertex 2.19476 3.87433 1
    endloop
  endfacet
  facet normal 0.218143 0.975917 0
    outer loop
      vertex 1.94952 3.92915 1
      vertex 2.19476 3.87433 0
      vertex 1.94952 3.92915 0
    endloop
  endfacet
  facet normal 0.278991 0.960294 -0
    outer loop
      vertex 2.43607 3.80423 0
      vertex 2.19476 3.87433 1
      vertex 2.43607 3.80423 1
    endloop
  endfacet
  facet normal 0.278991 0.960294 0
    outer loop
      vertex 2.19476 3.87433 1
      vertex 2.43607 3.80423 0
      vertex 2.19476 3.87433 0
    endloop
  endfacet
  facet normal 0.094109 0.995562 -0
    outer loop
      vertex 1.70133 3.96846 0
      vertex 1.45116 3.99211 1
      vertex 1.70133 3.96846 1
    endloop
  endfacet
  facet normal 0.094109 0.995562 0
    outer loop
      vertex 1.45116 3.99211 1
      vertex 1.70133 3.96846 0
      vertex 1.45116 3.99211 0
    endloop
  endfacet
  facet normal 0.0314127 0.999506 -0
    outer loop
      vertex 1.45116 3.99211 0
      vertex 1.2 4 1
      vertex 1.45116 3.99211 1
    endloop
  endfacet
  facet normal 0.0314127 0.999506 0
    outer loop
      vertex 1.2 4 1
      vertex 1.45116 3.99211 0
      vertex 1.2 4 0
    endloop
  endfacet
  facet normal 0.45399 0.891007 -0
    outer loop
      vertex 3.12701 3.50523 0
      vertex 2.90312 3.61931 1
      vertex 3.12701 3.50523 1
    endloop
  endfacet
  facet normal 0.45399 0.891007 0
    outer loop
      vertex 2.90312 3.61931 1
      vertex 3.12701 3.50523 0
      vertex 2.90312 3.61931 0
    endloop
  endfacet
  facet normal 0.39715 0.917754 -0
    outer loop
      vertex 2.90312 3.61931 0
      vertex 2.6725 3.71911 1
      vertex 2.90312 3.61931 1
    endloop
  endfacet
  facet normal 0.39715 0.917754 0
    outer loop
      vertex 2.6725 3.71911 1
      vertex 2.90312 3.61931 0
      vertex 2.6725 3.71911 0
    endloop
  endfacet
  facet normal 0.562081 0.827082 -0
    outer loop
      vertex 3.55114 3.23607 0
      vertex 3.34331 3.37731 1
      vertex 3.55114 3.23607 1
    endloop
  endfacet
  facet normal 0.562081 0.827082 0
    outer loop
      vertex 3.34331 3.37731 1
      vertex 3.55114 3.23607 0
      vertex 3.34331 3.37731 0
    endloop
  endfacet
  facet normal 0.661312 0.750111 -0
    outer loop
      vertex 3.93819 2.91587 0
      vertex 3.7497 3.08205 1
      vertex 3.93819 2.91587 1
    endloop
  endfacet
  facet normal 0.661312 0.750111 0
    outer loop
      vertex 3.7497 3.08205 1
      vertex 3.93819 2.91587 0
      vertex 3.7497 3.08205 0
    endloop
  endfacet
  facet normal 0 0 -1
    outer loop
      vertex 3.82 0 0
      vertex 5.2 0 0
      vertex 5.19211 -0.251162 0
    endloop
  endfacet
  facet normal 0 0 -1
    outer loop
      vertex 3.81246 -0.23986 0
      vertex 5.19211 -0.251162 0
      vertex 5.16846 -0.501332 0
    endloop
  endfacet
  facet normal 0 0 -1
    outer loop
      vertex 5.2 0 0
      vertex 3.82 0 0
      vertex 5.19211 0.251162 0
    endloop
  endfacet
  facet normal 0 0 -1
    outer loop
      vertex 3.78988 -0.478772 0
      vertex 5.16846 -0.501332 0
      vertex 5.12915 -0.749525 0
    endloop
  endfacet
  facet normal 0 0 -1
    outer loop
      vertex 3.81246 0.23986 0
      vertex 5.19211 0.251162 0
      vertex 3.82 0 0
    endloop
  endfacet
  facet normal 0 0 -1
    outer loop
      vertex 3.75234 -0.715796 0
      vertex 5.12915 -0.749525 0
      vertex 5.07433 -0.994759 0
    endloop
  endfacet
  facet normal -0 0 -1
    outer loop
      vertex 5.19211 0.251162 0
      vertex 3.81246 0.23986 0
      vertex 5.16846 0.501332 0
    endloop
  endfacet
  facet normal 0 0 -1
    outer loop
      vertex 3.75234 -0.715796 0
      vertex 5.07433 -0.994759 0
      vertex 5.00423 -1.23607 0
    endloop
  endfacet
  facet normal 0 0 -1
    outer loop
      vertex 3.78988 0.478772 0
      vertex 5.16846 0.501332 0
      vertex 3.81246 0.23986 0
    endloop
  endfacet
  facet normal 0 0 -1
    outer loop
      vertex 3.69999 -0.949995 0
      vertex 5.00423 -1.23607 0
      vertex 4.91911 -1.4725 0
    endloop
  endfacet
  facet normal -0 0 -1
    outer loop
      vertex 5.16846 0.501332 0
      vertex 3.78988 0.478772 0
      vertex 5.12915 0.749525 0
    endloop
  endfacet
  facet normal 0 0 -1
    outer loop
      vertex 3.63304 -1.18044 0
      vertex 4.91911 -1.4725 0
      vertex 4.81931 -1.70312 0
    endloop
  endfacet
  facet normal 0 0 -1
    outer loop
      vertex 3.75234 0.715796 0
      vertex 5.12915 0.749525 0
      vertex 3.78988 0.478772 0
    endloop
  endfacet
  facet normal 0 0 -1
    outer loop
      vertex 3.55175 -1.40624 0
      vertex 4.81931 -1.70312 0
      vertex 4.70523 -1.92701 0
    endloop
  endfacet
  facet normal -0 0 -1
    outer loop
      vertex 5.12915 0.749525 0
      vertex 3.75234 0.715796 0
      vertex 5.07433 0.994759 0
    endloop
  endfacet
  facet normal 0 0 -1
    outer loop
      vertex 3.55175 -1.40624 0
      vertex 4.70523 -1.92701 0
      vertex 4.57731 -2.14331 0
    endloop
  endfacet
  facet normal -0 0 -1
    outer loop
      vertex 5.07433 0.994759 0
      vertex 3.75234 0.715796 0
      vertex 5.00423 1.23607 0
    endloop
  endfacet
  facet normal 0 0 -1
    outer loop
      vertex 3.45644 -1.62648 0
      vertex 4.57731 -2.14331 0
      vertex 4.43607 -2.35114 0
    endloop
  endfacet
  facet normal 0 0 -1
    outer loop
      vertex 3.69999 0.949995 0
      vertex 5.00423 1.23607 0
      vertex 3.75234 0.715796 0
    endloop
  endfacet
  facet normal 0 0 -1
    outer loop
      vertex 3.34749 -1.8403 0
      vertex 4.43607 -2.35114 0
      vertex 4.28205 -2.5497 0
    endloop
  endfacet
  facet normal -0 0 -1
    outer loop
      vertex 5.00423 1.23607 0
      vertex 3.69999 0.949995 0
      vertex 4.91911 1.4725 0
    endloop
  endfacet
  facet normal 0 0 -1
    outer loop
      vertex 3.22533 -2.04686 0
      vertex 4.28205 -2.5497 0
      vertex 4.11587 -2.73819 0
    endloop
  endfacet
  facet normal 0 0 -1
    outer loop
      vertex 3.63304 1.18044 0
      vertex 4.91911 1.4725 0
      vertex 3.69999 0.949995 0
    endloop
  endfacet
  facet normal 0 0 -1
    outer loop
      vertex 3.22533 -2.04686 0
      vertex 4.11587 -2.73819 0
      vertex 3.93819 -2.91587 0
    endloop
  endfacet
  facet normal -0 0 -1
    outer loop
      vertex 4.91911 1.4725 0
      vertex 3.63304 1.18044 0
      vertex 4.81931 1.70312 0
    endloop
  endfacet
  facet normal 0 0 -1
    outer loop
      vertex 3.55175 1.40624 0
      vertex 4.81931 1.70312 0
      vertex 3.63304 1.18044 0
    endloop
  endfacet
  facet normal 0 0 -1
    outer loop
      vertex 5.19211 -0.251162 0
      vertex 3.81246 -0.23986 0
      vertex 3.82 0 0
    endloop
  endfacet
  facet normal 0 0 -1
    outer loop
      vertex 5.16846 -0.501332 0
      vertex 3.78988 -0.478772 0
      vertex 3.81246 -0.23986 0
    endloop
  endfacet
  facet normal 0 0 -1
    outer loop
      vertex 5.12915 -0.749525 0
      vertex 3.75234 -0.715796 0
      vertex 3.78988 -0.478772 0
    endloop
  endfacet
  facet normal 0 0 -1
    outer loop
      vertex 3.09044 -2.24534 0
      vertex 3.93819 -2.91587 0
      vertex 3.7497 -3.08205 0
    endloop
  endfacet
  facet normal 0 0 -1
    outer loop
      vertex 5.00423 -1.23607 0
      vertex 3.69999 -0.949995 0
      vertex 3.75234 -0.715796 0
    endloop
  endfacet
  facet normal 0 0 -1
    outer loop
      vertex 4.91911 -1.4725 0
      vertex 3.63304 -1.18044 0
      vertex 3.69999 -0.949995 0
    endloop
  endfacet
  facet normal 0 0 -1
    outer loop
      vertex 4.81931 -1.70312 0
      vertex 3.55175 -1.40624 0
      vertex 3.63304 -1.18044 0
    endloop
  endfacet
  facet normal 0 0 -1
    outer loop
      vertex 2.94336 -2.43496 0
      vertex 3.7497 -3.08205 0
      vertex 3.55114 -3.23607 0
    endloop
  endfacet
  facet normal 0 0 -1
    outer loop
      vertex 4.57731 -2.14331 0
      vertex 3.45644 -1.62648 0
      vertex 3.55175 -1.40624 0
    endloop
  endfacet
  facet normal 0 0 -1
    outer loop
      vertex 4.43607 -2.35114 0
      vertex 3.34749 -1.8403 0
      vertex 3.45644 -1.62648 0
    endloop
  endfacet
  facet normal 0 0 -1
    outer loop
      vertex 2.78466 -2.61497 0
      vertex 3.55114 -3.23607 0
      vertex 3.34331 -3.37731 0
    endloop
  endfacet
  facet normal 0 0 -1
    outer loop
      vertex 4.28205 -2.5497 0
      vertex 3.22533 -2.04686 0
      vertex 3.34749 -1.8403 0
    endloop
  endfacet
  facet normal 0 0 -1
    outer loop
      vertex 2.61497 -2.78466 0
      vertex 3.34331 -3.37731 0
      vertex 3.12701 -3.50523 0
    endloop
  endfacet
  facet normal 0 0 -1
    outer loop
      vertex 3.93819 -2.91587 0
      vertex 3.09044 -2.24534 0
      vertex 3.22533 -2.04686 0
    endloop
  endfacet
  facet normal 0 0 -1
    outer loop
      vertex 3.7497 -3.08205 0
      vertex 2.94336 -2.43496 0
      vertex 3.09044 -2.24534 0
    endloop
  endfacet
  facet normal 0 0 -1
    outer loop
      vertex 2.61497 -2.78466 0
      vertex 3.12701 -3.50523 0
      vertex 2.90312 -3.61931 0
    endloop
  endfacet
  facet normal 0 0 -1
    outer loop
      vertex 3.55114 -3.23607 0
      vertex 2.78466 -2.61497 0
      vertex 2.94336 -2.43496 0
    endloop
  endfacet
  facet normal 0 0 -1
    outer loop
      vertex 2.43496 -2.94336 0
      vertex 2.90312 -3.61931 0
      vertex 2.6725 -3.71911 0
    endloop
  endfacet
  facet normal 0 0 -1
    outer loop
      vertex 3.34331 -3.37731 0
      vertex 2.61497 -2.78466 0
      vertex 2.78466 -2.61497 0
    endloop
  endfacet
  facet normal 0 0 -1
    outer loop
      vertex 2.24534 -3.09044 0
      vertex 2.6725 -3.71911 0
      vertex 2.43607 -3.80423 0
    endloop
  endfacet
  facet normal 0 0 -1
    outer loop
      vertex 2.90312 -3.61931 0
      vertex 2.43496 -2.94336 0
      vertex 2.61497 -2.78466 0
    endloop
  endfacet
  facet normal 0 0 -1
    outer loop
      vertex 2.6725 -3.71911 0
      vertex 2.24534 -3.09044 0
      vertex 2.43496 -2.94336 0
    endloop
  endfacet
  facet normal 0 0 -1
    outer loop
      vertex 2.04686 -3.22533 0
      vertex 2.43607 -3.80423 0
      vertex 2.19476 -3.87433 0
    endloop
  endfacet
  facet normal 0 0 -1
    outer loop
      vertex 2.43607 -3.80423 0
      vertex 2.04686 -3.22533 0
      vertex 2.24534 -3.09044 0
    endloop
  endfacet
  facet normal 0 0 -1
    outer loop
      vertex 1.8403 -3.34749 0
      vertex 2.19476 -3.87433 0
      vertex 1.94952 -3.92915 0
    endloop
  endfacet
  facet normal 0 0 -1
    outer loop
      vertex 2.19476 -3.87433 0
      vertex 1.8403 -3.34749 0
      vertex 2.04686 -3.22533 0
    endloop
  endfacet
  facet normal 0 0 -1
    outer loop
      vertex 1.62648 -3.45644 0
      vertex 1.94952 -3.92915 0
      vertex 1.70133 -3.96846 0
    endloop
  endfacet
  facet normal 0 0 -1
    outer loop
      vertex 1.94952 -3.92915 0
      vertex 1.62648 -3.45644 0
      vertex 1.8403 -3.34749 0
    endloop
  endfacet
  facet normal 0 0 -1
    outer loop
      vertex 1.40624 -3.55175 0
      vertex 1.70133 -3.96846 0
      vertex 1.45116 -3.99211 0
    endloop
  endfacet
  facet normal 0 0 -1
    outer loop
      vertex 1.70133 -3.96846 0
      vertex 1.40624 -3.55175 0
      vertex 1.62648 -3.45644 0
    endloop
  endfacet
  facet normal 0 0 -1
    outer loop
      vertex 1.18044 -3.63304 0
      vertex 1.45116 -3.99211 0
      vertex 1.2 -4 0
    endloop
  endfacet
  facet normal 0 0 -1
    outer loop
      vertex 1.45116 -3.99211 0
      vertex 1.18044 -3.63304 0
      vertex 1.40624 -3.55175 0
    endloop
  endfacet
  facet normal 0 0 -1
    outer loop
      vertex 1.2 -4 0
      vertex 0.949995 -3.69999 0
      vertex 1.18044 -3.63304 0
    endloop
  endfacet
  facet normal 0 0 -1
    outer loop
      vertex 0.948837 -3.99211 0
      vertex 0.949995 -3.69999 0
      vertex 1.2 -4 0
    endloop
  endfacet
  facet normal 0 0 -1
    outer loop
      vertex 0.948837 -3.99211 0
      vertex 0.715796 -3.75234 0
      vertex 0.949995 -3.69999 0
    endloop
  endfacet
  facet normal 0 0 -1
    outer loop
      vertex 0.698667 -3.96846 0
      vertex 0.715796 -3.75234 0
      vertex 0.948837 -3.99211 0
    endloop
  endfacet
  facet normal 0 0 -1
    outer loop
      vertex 0.698667 -3.96846 0
      vertex 0.478772 -3.78988 0
      vertex 0.715796 -3.75234 0
    endloop
  endfacet
  facet normal 0 0 -1
    outer loop
      vertex 0.450475 -3.92915 0
      vertex 0.478772 -3.78988 0
      vertex 0.698667 -3.96846 0
    endloop
  endfacet
  facet normal 0 0 -1
    outer loop
      vertex 0.450475 -3.92915 0
      vertex 0.23986 -3.81246 0
      vertex 0.478772 -3.78988 0
    endloop
  endfacet
  facet normal 0 0 -1
    outer loop
      vertex 0.20524 -3.87433 0
      vertex 0.23986 -3.81246 0
      vertex 0.450475 -3.92915 0
    endloop
  endfacet
  facet normal 0 0 -1
    outer loop
      vertex 0.23986 -3.81246 0
      vertex 0.20524 -3.87433 0
      vertex 0.0164467 -3.81948 0
    endloop
  endfacet
  facet normal -0 0 -1
    outer loop
      vertex 4.81931 1.70312 0
      vertex 3.55175 1.40624 0
      vertex 4.70523 1.92701 0
    endloop
  endfacet
  facet normal -0 0 -1
    outer loop
      vertex 4.70523 1.92701 0
      vertex 3.55175 1.40624 0
      vertex 4.57731 2.14331 0
    endloop
  endfacet
  facet normal 0 0 -1
    outer loop
      vertex 3.45644 1.62648 0
      vertex 4.57731 2.14331 0
      vertex 3.55175 1.40624 0
    endloop
  endfacet
  facet normal -0 0 -1
    outer loop
      vertex 4.57731 2.14331 0
      vertex 3.45644 1.62648 0
      vertex 4.43607 2.35114 0
    endloop
  endfacet
  facet normal 0 0 -1
    outer loop
      vertex 3.34749 1.8403 0
      vertex 4.43607 2.35114 0
      vertex 3.45644 1.62648 0
    endloop
  endfacet
  facet normal -0 0 -1
    outer loop
      vertex 4.43607 2.35114 0
      vertex 3.34749 1.8403 0
      vertex 4.28205 2.5497 0
    endloop
  endfacet
  facet normal 0 0 -1
    outer loop
      vertex 3.22533 2.04686 0
      vertex 4.28205 2.5497 0
      vertex 3.34749 1.8403 0
    endloop
  endfacet
  facet normal -0 0 -1
    outer loop
      vertex 4.28205 2.5497 0
      vertex 3.22533 2.04686 0
      vertex 4.11587 2.73819 0
    endloop
  endfacet
  facet normal -0 0 -1
    outer loop
      vertex 4.11587 2.73819 0
      vertex 3.22533 2.04686 0
      vertex 3.93819 2.91587 0
    endloop
  endfacet
  facet normal 0 0 -1
    outer loop
      vertex 3.09044 2.24534 0
      vertex 3.93819 2.91587 0
      vertex 3.22533 2.04686 0
    endloop
  endfacet
  facet normal -0 0 -1
    outer loop
      vertex 3.93819 2.91587 0
      vertex 3.09044 2.24534 0
      vertex 3.7497 3.08205 0
    endloop
  endfacet
  facet normal 0 0 -1
    outer loop
      vertex 2.94336 2.43496 0
      vertex 3.7497 3.08205 0
      vertex 3.09044 2.24534 0
    endloop
  endfacet
  facet normal -0 0 -1
    outer loop
      vertex 3.7497 3.08205 0
      vertex 2.94336 2.43496 0
      vertex 3.55114 3.23607 0
    endloop
  endfacet
  facet normal 0 0 -1
    outer loop
      vertex 2.78466 2.61497 0
      vertex 3.55114 3.23607 0
      vertex 2.94336 2.43496 0
    endloop
  endfacet
  facet normal -0 0 -1
    outer loop
      vertex 3.55114 3.23607 0
      vertex 2.78466 2.61497 0
      vertex 3.34331 3.37731 0
    endloop
  endfacet
  facet normal 0 0 -1
    outer loop
      vertex 2.61497 2.78466 0
      vertex 3.34331 3.37731 0
      vertex 2.78466 2.61497 0
    endloop
  endfacet
  facet normal -0 0 -1
    outer loop
      vertex 3.34331 3.37731 0
      vertex 2.61497 2.78466 0
      vertex 3.12701 3.50523 0
    endloop
  endfacet
  facet normal -0 0 -1
    outer loop
      vertex 3.12701 3.50523 0
      vertex 2.61497 2.78466 0
      vertex 2.90312 3.61931 0
    endloop
  endfacet
  facet normal 0 0 -1
    outer loop
      vertex 2.43496 2.94336 0
      vertex 2.90312 3.61931 0
      vertex 2.61497 2.78466 0
    endloop
  endfacet
  facet normal -0 0 -1
    outer loop
      vertex 2.90312 3.61931 0
      vertex 2.43496 2.94336 0
      vertex 2.6725 3.71911 0
    endloop
  endfacet
  facet normal 0 0 -1
    outer loop
      vertex 2.24534 3.09044 0
      vertex 2.6725 3.71911 0
      vertex 2.43496 2.94336 0
    endloop
  endfacet
  facet normal -0 0 -1
    outer loop
      vertex 2.6725 3.71911 0
      vertex 2.24534 3.09044 0
      vertex 2.43607 3.80423 0
    endloop
  endfacet
  facet normal 0 0 -1
    outer loop
      vertex 2.04686 3.22533 0
      vertex 2.43607 3.80423 0
      vertex 2.24534 3.09044 0
    endloop
  endfacet
  facet normal -0 0 -1
    outer loop
      vertex 2.43607 3.80423 0
      vertex 2.04686 3.22533 0
      vertex 2.19476 3.87433 0
    endloop
  endfacet
  facet normal 0 0 -1
    outer loop
      vertex 1.8403 3.34749 0
      vertex 2.19476 3.87433 0
      vertex 2.04686 3.22533 0
    endloop
  endfacet
  facet normal -0 0 -1
    outer loop
      vertex 2.19476 3.87433 0
      vertex 1.8403 3.34749 0
      vertex 1.94952 3.92915 0
    endloop
  endfacet
  facet normal 0 0 -1
    outer loop
      vertex 1.62648 3.45644 0
      vertex 1.94952 3.92915 0
      vertex 1.8403 3.34749 0
    endloop
  endfacet
  facet normal -0 0 -1
    outer loop
      vertex 1.94952 3.92915 0
      vertex 1.62648 3.45644 0
      vertex 1.70133 3.96846 0
    endloop
  endfacet
  facet normal 0 0 -1
    outer loop
      vertex 1.40624 3.55175 0
      vertex 1.70133 3.96846 0
      vertex 1.62648 3.45644 0
    endloop
  endfacet
  facet normal -0 0 -1
    outer loop
      vertex 1.70133 3.96846 0
      vertex 1.40624 3.55175 0
      vertex 1.45116 3.99211 0
    endloop
  endfacet
  facet normal 0 0 -1
    outer loop
      vertex 1.18044 3.63304 0
      vertex 1.45116 3.99211 0
      vertex 1.40624 3.55175 0
    endloop
  endfacet
  facet normal -0 0 -1
    outer loop
      vertex 1.45116 3.99211 0
      vertex 1.18044 3.63304 0
      vertex 1.2 4 0
    endloop
  endfacet
  facet normal 0 0 -1
    outer loop
      vertex 0.949995 3.69999 0
      vertex 1.2 4 0
      vertex 1.18044 3.63304 0
    endloop
  endfacet
  facet normal 0 0 -1
    outer loop
      vertex 0.949995 3.69999 0
      vertex 0.948837 3.99211 0
      vertex 1.2 4 0
    endloop
  endfacet
  facet normal 0 0 -1
    outer loop
      vertex 0.715796 3.75234 0
      vertex 0.948837 3.99211 0
      vertex 0.949995 3.69999 0
    endloop
  endfacet
  facet normal 0 0 -1
    outer loop
      vertex 0.715796 3.75234 0
      vertex 0.698667 3.96846 0
      vertex 0.948837 3.99211 0
    endloop
  endfacet
  facet normal 0 0 -1
    outer loop
      vertex 0.478772 3.78988 0
      vertex 0.698667 3.96846 0
      vertex 0.715796 3.75234 0
    endloop
  endfacet
  facet normal 0 0 -1
    outer loop
      vertex 0.478772 3.78988 0
      vertex 0.450475 3.92915 0
      vertex 0.698667 3.96846 0
    endloop
  endfacet
  facet normal 0 0 -1
    outer loop
      vertex 0.23986 3.81246 0
      vertex 0.450475 3.92915 0
      vertex 0.478772 3.78988 0
    endloop
  endfacet
  facet normal 0 0 -1
    outer loop
      vertex 0.23986 3.81246 0
      vertex 0.20524 3.87433 0
      vertex 0.450475 3.92915 0
    endloop
  endfacet
  facet normal 0 -0 -1
    outer loop
      vertex 0.20524 3.87433 0
      vertex 0.23986 3.81246 0
      vertex 0.0164467 3.81948 0
    endloop
  endfacet
  facet normal -0.156434 0.987688 0
    outer loop
      vertex 0.698667 3.96846 0
      vertex 0.450475 3.92915 1
      vertex 0.698667 3.96846 1
    endloop
  endfacet
  facet normal -0.156434 0.987688 0
    outer loop
      vertex 0.450475 3.92915 1
      vertex 0.698667 3.96846 0
      vertex 0.450475 3.92915 0
    endloop
  endfacet
  facet normal 0.999506 -0.0314127 0
    outer loop
      vertex 5.19211 -0.251162 1
      vertex 5.2 0 0
      vertex 5.2 0 1
    endloop
  endfacet
  facet normal 0.999506 -0.0314127 0
    outer loop
      vertex 5.2 0 0
      vertex 5.19211 -0.251162 1
      vertex 5.19211 -0.251162 0
    endloop
  endfacet
  facet normal 0.987689 -0.156433 0
    outer loop
      vertex 5.12915 -0.749525 1
      vertex 5.16846 -0.501332 0
      vertex 5.16846 -0.501332 1
    endloop
  endfacet
  facet normal 0.987689 -0.156433 0
    outer loop
      vertex 5.16846 -0.501332 0
      vertex 5.12915 -0.749525 1
      vertex 5.12915 -0.749525 0
    endloop
  endfacet
  facet normal 0.860743 -0.50904 0
    outer loop
      vertex 4.57731 -2.14331 1
      vertex 4.70523 -1.92701 0
      vertex 4.70523 -1.92701 1
    endloop
  endfacet
  facet normal 0.860743 -0.50904 0
    outer loop
      vertex 4.70523 -1.92701 0
      vertex 4.57731 -2.14331 1
      vertex 4.57731 -2.14331 0
    endloop
  endfacet
  facet normal 0.940881 -0.338738 0
    outer loop
      vertex 4.91911 -1.4725 1
      vertex 5.00423 -1.23607 0
      vertex 5.00423 -1.23607 1
    endloop
  endfacet
  facet normal 0.940881 -0.338738 0
    outer loop
      vertex 5.00423 -1.23607 0
      vertex 4.91911 -1.4725 1
      vertex 4.91911 -1.4725 0
    endloop
  endfacet
  facet normal 0.278991 -0.960294 0
    outer loop
      vertex 2.19476 -3.87433 0
      vertex 2.43607 -3.80423 1
      vertex 2.19476 -3.87433 1
    endloop
  endfacet
  facet normal 0.278991 -0.960294 0
    outer loop
      vertex 2.43607 -3.80423 1
      vertex 2.19476 -3.87433 0
      vertex 2.43607 -3.80423 0
    endloop
  endfacet
  facet normal 0.39715 -0.917754 0
    outer loop
      vertex 2.6725 -3.71911 0
      vertex 2.90312 -3.61931 1
      vertex 2.6725 -3.71911 1
    endloop
  endfacet
  facet normal 0.39715 -0.917754 0
    outer loop
      vertex 2.90312 -3.61931 1
      vertex 2.6725 -3.71911 0
      vertex 2.90312 -3.61931 0
    endloop
  endfacet
  facet normal 0.960294 0.27899 0
    outer loop
      vertex 5.07433 0.994759 1
      vertex 5.00423 1.23607 0
      vertex 5.00423 1.23607 1
    endloop
  endfacet
  facet normal 0.960294 0.27899 0
    outer loop
      vertex 5.00423 1.23607 0
      vertex 5.07433 0.994759 1
      vertex 5.07433 0.994759 0
    endloop
  endfacet
  facet normal 0 0 1
    outer loop
      vertex 3.82 0 1
      vertex 5.2 0 1
      vertex 5.19211 0.251162 1
    endloop
  endfacet
  facet normal 0 0 1
    outer loop
      vertex 3.81246 0.23986 1
      vertex 5.19211 0.251162 1
      vertex 5.16846 0.501332 1
    endloop
  endfacet
  facet normal 0 0 1
    outer loop
      vertex 5.2 0 1
      vertex 3.82 0 1
      vertex 5.19211 -0.251162 1
    endloop
  endfacet
  facet normal 0 0 1
    outer loop
      vertex 3.78988 0.478772 1
      vertex 5.16846 0.501332 1
      vertex 5.12915 0.749525 1
    endloop
  endfacet
  facet normal -0 0 1
    outer loop
      vertex 3.81246 -0.23986 1
      vertex 5.19211 -0.251162 1
      vertex 3.82 0 1
    endloop
  endfacet
  facet normal 0 0 1
    outer loop
      vertex 3.75234 0.715796 1
      vertex 5.12915 0.749525 1
      vertex 5.07433 0.994759 1
    endloop
  endfacet
  facet normal 0 0 1
    outer loop
      vertex 5.19211 -0.251162 1
      vertex 3.81246 -0.23986 1
      vertex 5.16846 -0.501332 1
    endloop
  endfacet
  facet normal 0 0 1
    outer loop
      vertex 3.75234 0.715796 1
      vertex 5.07433 0.994759 1
      vertex 5.00423 1.23607 1
    endloop
  endfacet
  facet normal -0 0 1
    outer loop
      vertex 3.78988 -0.478772 1
      vertex 5.16846 -0.501332 1
      vertex 3.81246 -0.23986 1
    endloop
  endfacet
  facet normal 0 0 1
    outer loop
      vertex 3.69999 0.949995 1
      vertex 5.00423 1.23607 1
      vertex 4.91911 1.4725 1
    endloop
  endfacet
  facet normal 0 0 1
    outer loop
      vertex 5.16846 -0.501332 1
      vertex 3.78988 -0.478772 1
      vertex 5.12915 -0.749525 1
    endloop
  endfacet
  facet normal 0 0 1
    outer loop
      vertex 3.63304 1.18044 1
      vertex 4.91911 1.4725 1
      vertex 4.81931 1.70312 1
    endloop
  endfacet
  facet normal -0 0 1
    outer loop
      vertex 3.75234 -0.715796 1
      vertex 5.12915 -0.749525 1
      vertex 3.78988 -0.478772 1
    endloop
  endfacet
  facet normal 0 0 1
    outer loop
      vertex 3.55175 1.40624 1
      vertex 4.81931 1.70312 1
      vertex 4.70523 1.92701 1
    endloop
  endfacet
  facet normal 0 0 1
    outer loop
      vertex 5.12915 -0.749525 1
      vertex 3.75234 -0.715796 1
      vertex 5.07433 -0.994759 1
    endloop
  endfacet
  facet normal 0 0 1
    outer loop
      vertex 3.55175 1.40624 1
      vertex 4.70523 1.92701 1
      vertex 4.57731 2.14331 1
    endloop
  endfacet
  facet normal 0 0 1
    outer loop
      vertex 5.07433 -0.994759 1
      vertex 3.75234 -0.715796 1
      vertex 5.00423 -1.23607 1
    endloop
  endfacet
  facet normal 0 0 1
    outer loop
      vertex 3.45644 1.62648 1
      vertex 4.57731 2.14331 1
      vertex 4.43607 2.35114 1
    endloop
  endfacet
  facet normal -0 0 1
    outer loop
      vertex 3.69999 -0.949995 1
      vertex 5.00423 -1.23607 1
      vertex 3.75234 -0.715796 1
    endloop
  endfacet
  facet normal 0 0 1
    outer loop
      vertex 3.34749 1.8403 1
      vertex 4.43607 2.35114 1
      vertex 4.28205 2.5497 1
    endloop
  endfacet
  facet normal 0 0 1
    outer loop
      vertex 5.00423 -1.23607 1
      vertex 3.69999 -0.949995 1
      vertex 4.91911 -1.4725 1
    endloop
  endfacet
  facet normal 0 0 1
    outer loop
      vertex 3.22533 2.04686 1
      vertex 4.28205 2.5497 1
      vertex 4.11587 2.73819 1
    endloop
  endfacet
  facet normal -0 0 1
    outer loop
      vertex 3.63304 -1.18044 1
      vertex 4.91911 -1.4725 1
      vertex 3.69999 -0.949995 1
    endloop
  endfacet
  facet normal 0 0 1
    outer loop
      vertex 3.22533 2.04686 1
      vertex 4.11587 2.73819 1
      vertex 3.93819 2.91587 1
    endloop
  endfacet
  facet normal 0 0 1
    outer loop
      vertex 4.91911 -1.4725 1
      vertex 3.63304 -1.18044 1
      vertex 4.81931 -1.70312 1
    endloop
  endfacet
  facet normal -0 0 1
    outer loop
      vertex 3.55175 -1.40624 1
      vertex 4.81931 -1.70312 1
      vertex 3.63304 -1.18044 1
    endloop
  endfacet
  facet normal 0 0 1
    outer loop
      vertex 5.19211 0.251162 1
      vertex 3.81246 0.23986 1
      vertex 3.82 0 1
    endloop
  endfacet
  facet normal 0 0 1
    outer loop
      vertex 5.16846 0.501332 1
      vertex 3.78988 0.478772 1
      vertex 3.81246 0.23986 1
    endloop
  endfacet
  facet normal 0 0 1
    outer loop
      vertex 5.12915 0.749525 1
      vertex 3.75234 0.715796 1
      vertex 3.78988 0.478772 1
    endloop
  endfacet
  facet normal 0 0 1
    outer loop
      vertex 3.09044 2.24534 1
      vertex 3.93819 2.91587 1
      vertex 3.7497 3.08205 1
    endloop
  endfacet
  facet normal 0 0 1
    outer loop
      vertex 5.00423 1.23607 1
      vertex 3.69999 0.949995 1
      vertex 3.75234 0.715796 1
    endloop
  endfacet
  facet normal 0 0 1
    outer loop
      vertex 4.91911 1.4725 1
      vertex 3.63304 1.18044 1
      vertex 3.69999 0.949995 1
    endloop
  endfacet
  facet normal 0 0 1
    outer loop
      vertex 4.81931 1.70312 1
      vertex 3.55175 1.40624 1
      vertex 3.63304 1.18044 1
    endloop
  endfacet
  facet normal 0 0 1
    outer loop
      vertex 2.94336 2.43496 1
      vertex 3.7497 3.08205 1
      vertex 3.55114 3.23607 1
    endloop
  endfacet
  facet normal 0 0 1
    outer loop
      vertex 4.57731 2.14331 1
      vertex 3.45644 1.62648 1
      vertex 3.55175 1.40624 1
    endloop
  endfacet
  facet normal 0 0 1
    outer loop
      vertex 4.43607 2.35114 1
      vertex 3.34749 1.8403 1
      vertex 3.45644 1.62648 1
    endloop
  endfacet
  facet normal 0 0 1
    outer loop
      vertex 2.78466 2.61497 1
      vertex 3.55114 3.23607 1
      vertex 3.34331 3.37731 1
    endloop
  endfacet
  facet normal 0 0 1
    outer loop
      vertex 4.28205 2.5497 1
      vertex 3.22533 2.04686 1
      vertex 3.34749 1.8403 1
    endloop
  endfacet
  facet normal 0 0 1
    outer loop
      vertex 2.61497 2.78466 1
      vertex 3.34331 3.37731 1
      vertex 3.12701 3.50523 1
    endloop
  endfacet
  facet normal 0 0 1
    outer loop
      vertex 3.93819 2.91587 1
      vertex 3.09044 2.24534 1
      vertex 3.22533 2.04686 1
    endloop
  endfacet
  facet normal 0 0 1
    outer loop
      vertex 3.7497 3.08205 1
      vertex 2.94336 2.43496 1
      vertex 3.09044 2.24534 1
    endloop
  endfacet
  facet normal 0 0 1
    outer loop
      vertex 2.61497 2.78466 1
      vertex 3.12701 3.50523 1
      vertex 2.90312 3.61931 1
    endloop
  endfacet
  facet normal 0 0 1
    outer loop
      vertex 3.55114 3.23607 1
      vertex 2.78466 2.61497 1
      vertex 2.94336 2.43496 1
    endloop
  endfacet
  facet normal 0 0 1
    outer loop
      vertex 2.43496 2.94336 1
      vertex 2.90312 3.61931 1
      vertex 2.6725 3.71911 1
    endloop
  endfacet
  facet normal 0 0 1
    outer loop
      vertex 3.34331 3.37731 1
      vertex 2.61497 2.78466 1
      vertex 2.78466 2.61497 1
    endloop
  endfacet
  facet normal 0 0 1
    outer loop
      vertex 2.24534 3.09044 1
      vertex 2.6725 3.71911 1
      vertex 2.43607 3.80423 1
    endloop
  endfacet
  facet normal 0 0 1
    outer loop
      vertex 2.90312 3.61931 1
      vertex 2.43496 2.94336 1
      vertex 2.61497 2.78466 1
    endloop
  endfacet
  facet normal 0 0 1
    outer loop
      vertex 2.6725 3.71911 1
      vertex 2.24534 3.09044 1
      vertex 2.43496 2.94336 1
    endloop
  endfacet
  facet normal 0 0 1
    outer loop
      vertex 2.04686 3.22533 1
      vertex 2.43607 3.80423 1
      vertex 2.19476 3.87433 1
    endloop
  endfacet
  facet normal 0 0 1
    outer loop
      vertex 2.43607 3.80423 1
      vertex 2.04686 3.22533 1
      vertex 2.24534 3.09044 1
    endloop
  endfacet
  facet normal 0 0 1
    outer loop
      vertex 1.8403 3.34749 1
      vertex 2.19476 3.87433 1
      vertex 1.94952 3.92915 1
    endloop
  endfacet
  facet normal 0 0 1
    outer loop
      vertex 2.19476 3.87433 1
      vertex 1.8403 3.34749 1
      vertex 2.04686 3.22533 1
    endloop
  endfacet
  facet normal 0 0 1
    outer loop
      vertex 1.62648 3.45644 1
      vertex 1.94952 3.92915 1
      vertex 1.70133 3.96846 1
    endloop
  endfacet
  facet normal 0 0 1
    outer loop
      vertex 1.94952 3.92915 1
      vertex 1.62648 3.45644 1
      vertex 1.8403 3.34749 1
    endloop
  endfacet
  facet normal 0 0 1
    outer loop
      vertex 1.40624 3.55175 1
      vertex 1.70133 3.96846 1
      vertex 1.45116 3.99211 1
    endloop
  endfacet
  facet normal 0 0 1
    outer loop
      vertex 1.70133 3.96846 1
      vertex 1.40624 3.55175 1
      vertex 1.62648 3.45644 1
    endloop
  endfacet
  facet normal 0 0 1
    outer loop
      vertex 1.18044 3.63304 1
      vertex 1.45116 3.99211 1
      vertex 1.2 4 1
    endloop
  endfacet
  facet normal 0 0 1
    outer loop
      vertex 1.45116 3.99211 1
      vertex 1.18044 3.63304 1
      vertex 1.40624 3.55175 1
    endloop
  endfacet
  facet normal 0 0 1
    outer loop
      vertex 1.2 4 1
      vertex 0.949995 3.69999 1
      vertex 1.18044 3.63304 1
    endloop
  endfacet
  facet normal -0 0 1
    outer loop
      vertex 0.948837 3.99211 1
      vertex 0.949995 3.69999 1
      vertex 1.2 4 1
    endloop
  endfacet
  facet normal 0 0 1
    outer loop
      vertex 0.948837 3.99211 1
      vertex 0.715796 3.75234 1
      vertex 0.949995 3.69999 1
    endloop
  endfacet
  facet normal -0 0 1
    outer loop
      vertex 0.698667 3.96846 1
      vertex 0.715796 3.75234 1
      vertex 0.948837 3.99211 1
    endloop
  endfacet
  facet normal 0 0 1
    outer loop
      vertex 0.698667 3.96846 1
      vertex 0.478772 3.78988 1
      vertex 0.715796 3.75234 1
    endloop
  endfacet
  facet normal -0 0 1
    outer loop
      vertex 0.450475 3.92915 1
      vertex 0.478772 3.78988 1
      vertex 0.698667 3.96846 1
    endloop
  endfacet
  facet normal 0 0 1
    outer loop
      vertex 0.450475 3.92915 1
      vertex 0.23986 3.81246 1
      vertex 0.478772 3.78988 1
    endloop
  endfacet
  facet normal -0 0 1
    outer loop
      vertex 0.20524 3.87433 1
      vertex 0.23986 3.81246 1
      vertex 0.450475 3.92915 1
    endloop
  endfacet
  facet normal 0 0 1
    outer loop
      vertex 0.23986 3.81246 1
      vertex 0.20524 3.87433 1
      vertex 0.0164467 3.81948 1
    endloop
  endfacet
  facet normal 0 0 1
    outer loop
      vertex 4.81931 -1.70312 1
      vertex 3.55175 -1.40624 1
      vertex 4.70523 -1.92701 1
    endloop
  endfacet
  facet normal 0 0 1
    outer loop
      vertex 4.70523 -1.92701 1
      vertex 3.55175 -1.40624 1
      vertex 4.57731 -2.14331 1
    endloop
  endfacet
  facet normal -0 0 1
    outer loop
      vertex 3.45644 -1.62648 1
      vertex 4.57731 -2.14331 1
      vertex 3.55175 -1.40624 1
    endloop
  endfacet
  facet normal 0 0 1
    outer loop
      vertex 4.57731 -2.14331 1
      vertex 3.45644 -1.62648 1
      vertex 4.43607 -2.35114 1
    endloop
  endfacet
  facet normal -0 0 1
    outer loop
      vertex 3.34749 -1.8403 1
      vertex 4.43607 -2.35114 1
      vertex 3.45644 -1.62648 1
    endloop
  endfacet
  facet normal 0 0 1
    outer loop
      vertex 4.43607 -2.35114 1
      vertex 3.34749 -1.8403 1
      vertex 4.28205 -2.5497 1
    endloop
  endfacet
  facet normal -0 0 1
    outer loop
      vertex 3.22533 -2.04686 1
      vertex 4.28205 -2.5497 1
      vertex 3.34749 -1.8403 1
    endloop
  endfacet
  facet normal 0 0 1
    outer loop
      vertex 4.28205 -2.5497 1
      vertex 3.22533 -2.04686 1
      vertex 4.11587 -2.73819 1
    endloop
  endfacet
  facet normal 0 0 1
    outer loop
      vertex 4.11587 -2.73819 1
      vertex 3.22533 -2.04686 1
      vertex 3.93819 -2.91587 1
    endloop
  endfacet
  facet normal -0 0 1
    outer loop
      vertex 3.09044 -2.24534 1
      vertex 3.93819 -2.91587 1
      vertex 3.22533 -2.04686 1
    endloop
  endfacet
  facet normal 0 0 1
    outer loop
      vertex 3.93819 -2.91587 1
      vertex 3.09044 -2.24534 1
      vertex 3.7497 -3.08205 1
    endloop
  endfacet
  facet normal -0 0 1
    outer loop
      vertex 2.94336 -2.43496 1
      vertex 3.7497 -3.08205 1
      vertex 3.09044 -2.24534 1
    endloop
  endfacet
  facet normal 0 0 1
    outer loop
      vertex 3.7497 -3.08205 1
      vertex 2.94336 -2.43496 1
      vertex 3.55114 -3.23607 1
    endloop
  endfacet
  facet normal -0 0 1
    outer loop
      vertex 2.78466 -2.61497 1
      vertex 3.55114 -3.23607 1
      vertex 2.94336 -2.43496 1
    endloop
  endfacet
  facet normal 0 0 1
    outer loop
      vertex 3.55114 -3.23607 1
      vertex 2.78466 -2.61497 1
      vertex 3.34331 -3.37731 1
    endloop
  endfacet
  facet normal -0 0 1
    outer loop
      vertex 2.61497 -2.78466 1
      vertex 3.34331 -3.37731 1
      vertex 2.78466 -2.61497 1
    endloop
  endfacet
  facet normal 0 0 1
    outer loop
      vertex 3.34331 -3.37731 1
      vertex 2.61497 -2.78466 1
      vertex 3.12701 -3.50523 1
    endloop
  endfacet
  facet normal 0 0 1
    outer loop
      vertex 3.12701 -3.50523 1
      vertex 2.61497 -2.78466 1
      vertex 2.90312 -3.61931 1
    endloop
  endfacet
  facet normal -0 0 1
    outer loop
      vertex 2.43496 -2.94336 1
      vertex 2.90312 -3.61931 1
      vertex 2.61497 -2.78466 1
    endloop
  endfacet
  facet normal 0 0 1
    outer loop
      vertex 2.90312 -3.61931 1
      vertex 2.43496 -2.94336 1
      vertex 2.6725 -3.71911 1
    endloop
  endfacet
  facet normal -0 0 1
    outer loop
      vertex 2.24534 -3.09044 1
      vertex 2.6725 -3.71911 1
      vertex 2.43496 -2.94336 1
    endloop
  endfacet
  facet normal 0 0 1
    outer loop
      vertex 2.6725 -3.71911 1
      vertex 2.24534 -3.09044 1
      vertex 2.43607 -3.80423 1
    endloop
  endfacet
  facet normal -0 0 1
    outer loop
      vertex 2.04686 -3.22533 1
      vertex 2.43607 -3.80423 1
      vertex 2.24534 -3.09044 1
    endloop
  endfacet
  facet normal 0 0 1
    outer loop
      vertex 2.43607 -3.80423 1
      vertex 2.04686 -3.22533 1
      vertex 2.19476 -3.87433 1
    endloop
  endfacet
  facet normal -0 0 1
    outer loop
      vertex 1.8403 -3.34749 1
      vertex 2.19476 -3.87433 1
      vertex 2.04686 -3.22533 1
    endloop
  endfacet
  facet normal 0 0 1
    outer loop
      vertex 2.19476 -3.87433 1
      vertex 1.8403 -3.34749 1
      vertex 1.94952 -3.92915 1
    endloop
  endfacet
  facet normal -0 0 1
    outer loop
      vertex 1.62648 -3.45644 1
      vertex 1.94952 -3.92915 1
      vertex 1.8403 -3.34749 1
    endloop
  endfacet
  facet normal 0 0 1
    outer loop
      vertex 1.94952 -3.92915 1
      vertex 1.62648 -3.45644 1
      vertex 1.70133 -3.96846 1
    endloop
  endfacet
  facet normal -0 0 1
    outer loop
      vertex 1.40624 -3.55175 1
      vertex 1.70133 -3.96846 1
      vertex 1.62648 -3.45644 1
    endloop
  endfacet
  facet normal 0 0 1
    outer loop
      vertex 1.70133 -3.96846 1
      vertex 1.40624 -3.55175 1
      vertex 1.45116 -3.99211 1
    endloop
  endfacet
  facet normal -0 0 1
    outer loop
      vertex 1.18044 -3.63304 1
      vertex 1.45116 -3.99211 1
      vertex 1.40624 -3.55175 1
    endloop
  endfacet
  facet normal 0 0 1
    outer loop
      vertex 1.45116 -3.99211 1
      vertex 1.18044 -3.63304 1
      vertex 1.2 -4 1
    endloop
  endfacet
  facet normal -0 0 1
    outer loop
      vertex 0.949995 -3.69999 1
      vertex 1.2 -4 1
      vertex 1.18044 -3.63304 1
    endloop
  endfacet
  facet normal 0 0 1
    outer loop
      vertex 0.949995 -3.69999 1
      vertex 0.948837 -3.99211 1
      vertex 1.2 -4 1
    endloop
  endfacet
  facet normal -0 0 1
    outer loop
      vertex 0.715796 -3.75234 1
      vertex 0.948837 -3.99211 1
      vertex 0.949995 -3.69999 1
    endloop
  endfacet
  facet normal 0 0 1
    outer loop
      vertex 0.715796 -3.75234 1
      vertex 0.698667 -3.96846 1
      vertex 0.948837 -3.99211 1
    endloop
  endfacet
  facet normal -0 0 1
    outer loop
      vertex 0.478772 -3.78988 1
      vertex 0.698667 -3.96846 1
      vertex 0.715796 -3.75234 1
    endloop
  endfacet
  facet normal 0 0 1
    outer loop
      vertex 0.478772 -3.78988 1
      vertex 0.450475 -3.92915 1
      vertex 0.698667 -3.96846 1
    endloop
  endfacet
  facet normal -0 0 1
    outer loop
      vertex 0.23986 -3.81246 1
      vertex 0.450475 -3.92915 1
      vertex 0.478772 -3.78988 1
    endloop
  endfacet
  facet normal 0 0 1
    outer loop
      vertex 0.23986 -3.81246 1
      vertex 0.20524 -3.87433 1
      vertex 0.450475 -3.92915 1
    endloop
  endfacet
  facet normal 0 -0 1
    outer loop
      vertex 0.20524 -3.87433 1
      vertex 0.23986 -3.81246 1
      vertex 0.0164467 -3.81948 1
    endloop
  endfacet
  facet normal -0.278991 0.960294 0
    outer loop
      vertex 0.20524 3.87433 0
      vertex 0.0164467 3.81948 1
      vertex 0.20524 3.87433 1
    endloop
  endfacet
  facet normal -0.278991 0.960294 0
    outer loop
      vertex 0.0164467 3.81948 1
      vertex 0.20524 3.87433 0
      vertex 0.0164467 3.81948 0
    endloop
  endfacet
  facet normal 0.995562 -0.094109 0
    outer loop
      vertex 5.16846 -0.501332 1
      vertex 5.19211 -0.251162 0
      vertex 5.19211 -0.251162 1
    endloop
  endfacet
  facet normal 0.995562 -0.094109 0
    outer loop
      vertex 5.19211 -0.251162 0
      vertex 5.16846 -0.501332 1
      vertex 5.16846 -0.501332 0
    endloop
  endfacet
  facet normal 0.975917 -0.218143 0
    outer loop
      vertex 5.07433 -0.994759 1
      vertex 5.12915 -0.749525 0
      vertex 5.12915 -0.749525 1
    endloop
  endfacet
  facet normal 0.975917 -0.218143 0
    outer loop
      vertex 5.12915 -0.749525 0
      vertex 5.07433 -0.994759 1
      vertex 5.07433 -0.994759 0
    endloop
  endfacet
  facet normal 0.891007 -0.45399 0
    outer loop
      vertex 4.70523 -1.92701 1
      vertex 4.81931 -1.70312 0
      vertex 4.81931 -1.70312 1
    endloop
  endfacet
  facet normal 0.891007 -0.45399 0
    outer loop
      vertex 4.81931 -1.70312 0
      vertex 4.70523 -1.92701 1
      vertex 4.70523 -1.92701 0
    endloop
  endfacet
  facet normal 0.750113 -0.66131 0
    outer loop
      vertex 4.11587 -2.73819 1
      vertex 4.28205 -2.5497 0
      vertex 4.28205 -2.5497 1
    endloop
  endfacet
  facet normal 0.750113 -0.66131 0
    outer loop
      vertex 4.28205 -2.5497 0
      vertex 4.11587 -2.73819 1
      vertex 4.11587 -2.73819 0
    endloop
  endfacet
  facet normal 0.827081 -0.562083 0
    outer loop
      vertex 4.43607 -2.35114 1
      vertex 4.57731 -2.14331 0
      vertex 4.57731 -2.14331 1
    endloop
  endfacet
  facet normal 0.827081 -0.562083 0
    outer loop
      vertex 4.57731 -2.14331 0
      vertex 4.43607 -2.35114 1
      vertex 4.43607 -2.35114 0
    endloop
  endfacet
  facet normal 0.0314127 -0.999506 0
    outer loop
      vertex 1.2 -4 0
      vertex 1.45116 -3.99211 1
      vertex 1.2 -4 1
    endloop
  endfacet
  facet normal 0.0314127 -0.999506 0
    outer loop
      vertex 1.45116 -3.99211 1
      vertex 1.2 -4 0
      vertex 1.45116 -3.99211 0
    endloop
  endfacet
  facet normal -0.278991 -0.960294 0
    outer loop
      vertex 0.0164467 -3.81948 0
      vertex 0.20524 -3.87433 1
      vertex 0.0164467 -3.81948 1
    endloop
  endfacet
  facet normal -0.278991 -0.960294 -0
    outer loop
      vertex 0.20524 -3.87433 1
      vertex 0.0164467 -3.81948 0
      vertex 0.20524 -3.87433 0
    endloop
  endfacet
  facet normal 0.218143 -0.975917 0
    outer loop
      vertex 1.94952 -3.92915 0
      vertex 2.19476 -3.87433 1
      vertex 1.94952 -3.92915 1
    endloop
  endfacet
  facet normal 0.218143 -0.975917 0
    outer loop
      vertex 2.19476 -3.87433 1
      vertex 1.94952 -3.92915 0
      vertex 2.19476 -3.87433 0
    endloop
  endfacet
  facet normal 0.707107 -0.707107 0
    outer loop
      vertex 3.93819 -2.91587 1
      vertex 4.11587 -2.73819 0
      vertex 4.11587 -2.73819 1
    endloop
  endfacet
  facet normal 0.707107 -0.707107 0
    outer loop
      vertex 4.11587 -2.73819 0
      vertex 3.93819 -2.91587 1
      vertex 3.93819 -2.91587 0
    endloop
  endfacet
  facet normal 0.612908 -0.790154 0
    outer loop
      vertex 3.55114 -3.23607 0
      vertex 3.7497 -3.08205 1
      vertex 3.55114 -3.23607 1
    endloop
  endfacet
  facet normal 0.612908 -0.790154 0
    outer loop
      vertex 3.7497 -3.08205 1
      vertex 3.55114 -3.23607 0
      vertex 3.7497 -3.08205 0
    endloop
  endfacet
  facet normal 0.661312 -0.750111 0
    outer loop
      vertex 3.7497 -3.08205 0
      vertex 3.93819 -2.91587 1
      vertex 3.7497 -3.08205 1
    endloop
  endfacet
  facet normal 0.661312 -0.750111 0
    outer loop
      vertex 3.93819 -2.91587 1
      vertex 3.7497 -3.08205 0
      vertex 3.93819 -2.91587 0
    endloop
  endfacet
  facet normal 0.509043 -0.860741 0
    outer loop
      vertex 3.12701 -3.50523 0
      vertex 3.34331 -3.37731 1
      vertex 3.12701 -3.50523 1
    endloop
  endfacet
  facet normal 0.509043 -0.860741 0
    outer loop
      vertex 3.34331 -3.37731 1
      vertex 3.12701 -3.50523 0
      vertex 3.34331 -3.37731 0
    endloop
  endfacet
  facet normal 0.790153 -0.61291 0
    outer loop
      vertex 4.28205 -2.5497 1
      vertex 4.43607 -2.35114 0
      vertex 4.43607 -2.35114 1
    endloop
  endfacet
  facet normal 0.790153 -0.61291 0
    outer loop
      vertex 4.43607 -2.35114 0
      vertex 4.28205 -2.5497 1
      vertex 4.28205 -2.5497 0
    endloop
  endfacet
  facet normal -0.094109 -0.995562 0
    outer loop
      vertex 0.698667 -3.96846 0
      vertex 0.948837 -3.99211 1
      vertex 0.698667 -3.96846 1
    endloop
  endfacet
  facet normal -0.094109 -0.995562 -0
    outer loop
      vertex 0.948837 -3.99211 1
      vertex 0.698667 -3.96846 0
      vertex 0.948837 -3.99211 0
    endloop
  endfacet
  facet normal -0.0314126 -0.999507 0
    outer loop
      vertex 0.948837 -3.99211 0
      vertex 1.2 -4 1
      vertex 0.948837 -3.99211 1
    endloop
  endfacet
  facet normal -0.0314126 -0.999507 -0
    outer loop
      vertex 1.2 -4 1
      vertex 0.948837 -3.99211 0
      vertex 1.2 -4 0
    endloop
  endfacet
  facet normal 0.338738 -0.940881 0
    outer loop
      vertex 2.43607 -3.80423 0
      vertex 2.6725 -3.71911 1
      vertex 2.43607 -3.80423 1
    endloop
  endfacet
  facet normal 0.338738 -0.940881 0
    outer loop
      vertex 2.6725 -3.71911 1
      vertex 2.43607 -3.80423 0
      vertex 2.6725 -3.71911 0
    endloop
  endfacet
  facet normal 0.917754 -0.39715 0
    outer loop
      vertex 4.81931 -1.70312 1
      vertex 4.91911 -1.4725 0
      vertex 4.91911 -1.4725 1
    endloop
  endfacet
  facet normal 0.917754 -0.39715 0
    outer loop
      vertex 4.91911 -1.4725 0
      vertex 4.81931 -1.70312 1
      vertex 4.81931 -1.70312 0
    endloop
  endfacet
  facet normal 0.562081 -0.827082 0
    outer loop
      vertex 3.34331 -3.37731 0
      vertex 3.55114 -3.23607 1
      vertex 3.34331 -3.37731 1
    endloop
  endfacet
  facet normal 0.562081 -0.827082 0
    outer loop
      vertex 3.55114 -3.23607 1
      vertex 3.34331 -3.37731 0
      vertex 3.55114 -3.23607 0
    endloop
  endfacet
  facet normal -0.156434 -0.987688 0
    outer loop
      vertex 0.450475 -3.92915 0
      vertex 0.698667 -3.96846 1
      vertex 0.450475 -3.92915 1
    endloop
  endfacet
  facet normal -0.156434 -0.987688 -0
    outer loop
      vertex 0.698667 -3.96846 1
      vertex 0.450475 -3.92915 0
      vertex 0.698667 -3.96846 0
    endloop
  endfacet
  facet normal -0.218143 -0.975917 0
    outer loop
      vertex 0.20524 -3.87433 0
      vertex 0.450475 -3.92915 1
      vertex 0.20524 -3.87433 1
    endloop
  endfacet
  facet normal -0.218143 -0.975917 -0
    outer loop
      vertex 0.450475 -3.92915 1
      vertex 0.20524 -3.87433 0
      vertex 0.450475 -3.92915 0
    endloop
  endfacet
  facet normal -0.860742 -0.509042 0
    outer loop
      vertex 3.34749 1.8403 0
      vertex 3.22533 2.04686 1
      vertex 3.22533 2.04686 0
    endloop
  endfacet
  facet normal -0.860742 -0.509042 0
    outer loop
      vertex 3.22533 2.04686 1
      vertex 3.34749 1.8403 0
      vertex 3.34749 1.8403 1
    endloop
  endfacet
  facet normal -0.33874 -0.94088 0
    outer loop
      vertex 1.18044 3.63304 0
      vertex 1.40624 3.55175 1
      vertex 1.18044 3.63304 1
    endloop
  endfacet
  facet normal -0.33874 -0.94088 -0
    outer loop
      vertex 1.40624 3.55175 1
      vertex 1.18044 3.63304 0
      vertex 1.40624 3.55175 0
    endloop
  endfacet
  facet normal -0.999507 0.0314106 0
    outer loop
      vertex 3.81246 -0.23986 0
      vertex 3.82 0 1
      vertex 3.82 0 0
    endloop
  endfacet
  facet normal -0.999507 0.0314106 0
    outer loop
      vertex 3.82 0 1
      vertex 3.81246 -0.23986 0
      vertex 3.81246 -0.23986 1
    endloop
  endfacet
  facet normal -0.94088 -0.33874 0
    outer loop
      vertex 3.63304 1.18044 0
      vertex 3.55175 1.40624 1
      vertex 3.55175 1.40624 0
    endloop
  endfacet
  facet normal -0.94088 -0.33874 0
    outer loop
      vertex 3.55175 1.40624 1
      vertex 3.63304 1.18044 0
      vertex 3.63304 1.18044 1
    endloop
  endfacet
  facet normal -0.0941086 -0.995562 0
    outer loop
      vertex 0.23986 3.81246 0
      vertex 0.478772 3.78988 1
      vertex 0.23986 3.81246 1
    endloop
  endfacet
  facet normal -0.0941086 -0.995562 -0
    outer loop
      vertex 0.478772 3.78988 1
      vertex 0.23986 3.81246 0
      vertex 0.478772 3.78988 0
    endloop
  endfacet
  facet normal -0.509042 -0.860742 0
    outer loop
      vertex 1.8403 3.34749 0
      vertex 2.04686 3.22533 1
      vertex 1.8403 3.34749 1
    endloop
  endfacet
  facet normal -0.509042 -0.860742 -0
    outer loop
      vertex 2.04686 3.22533 1
      vertex 1.8403 3.34749 0
      vertex 2.04686 3.22533 0
    endloop
  endfacet
  facet normal -0.790155 -0.612907 0
    outer loop
      vertex 3.09044 2.24534 0
      vertex 2.94336 2.43496 1
      vertex 2.94336 2.43496 0
    endloop
  endfacet
  facet normal -0.790155 -0.612907 0
    outer loop
      vertex 2.94336 2.43496 1
      vertex 3.09044 2.24534 0
      vertex 3.09044 2.24534 1
    endloop
  endfacet
  facet normal -0.707107 -0.707107 0
    outer loop
      vertex 2.78466 2.61497 0
      vertex 2.61497 2.78466 1
      vertex 2.61497 2.78466 0
    endloop
  endfacet
  facet normal -0.707107 -0.707107 0
    outer loop
      vertex 2.61497 2.78466 1
      vertex 2.78466 2.61497 0
      vertex 2.78466 2.61497 1
    endloop
  endfacet
  facet normal -0.278991 -0.960294 0
    outer loop
      vertex 0.949995 3.69999 0
      vertex 1.18044 3.63304 1
      vertex 0.949995 3.69999 1
    endloop
  endfacet
  facet normal -0.278991 -0.960294 -0
    outer loop
      vertex 1.18044 3.63304 1
      vertex 0.949995 3.69999 0
      vertex 1.18044 3.63304 0
    endloop
  endfacet
  facet normal -0.156436 -0.987688 0
    outer loop
      vertex 0.478772 3.78988 0
      vertex 0.715796 3.75234 1
      vertex 0.478772 3.78988 1
    endloop
  endfacet
  facet normal -0.156436 -0.987688 -0
    outer loop
      vertex 0.715796 3.75234 1
      vertex 0.478772 3.78988 0
      vertex 0.715796 3.75234 0
    endloop
  endfacet
  facet normal -0.45399 -0.891007 0
    outer loop
      vertex 1.62648 3.45644 0
      vertex 1.8403 3.34749 1
      vertex 1.62648 3.45644 1
    endloop
  endfacet
  facet normal -0.45399 -0.891007 -0
    outer loop
      vertex 1.8403 3.34749 1
      vertex 1.62648 3.45644 0
      vertex 1.8403 3.34749 0
    endloop
  endfacet
  facet normal -0.612907 -0.790155 0
    outer loop
      vertex 2.24534 3.09044 0
      vertex 2.43496 2.94336 1
      vertex 2.24534 3.09044 1
    endloop
  endfacet
  facet normal -0.612907 -0.790155 -0
    outer loop
      vertex 2.43496 2.94336 1
      vertex 2.24534 3.09044 0
      vertex 2.43496 2.94336 0
    endloop
  endfacet
  facet normal -0.999507 -0.0314106 0
    outer loop
      vertex 3.82 0 0
      vertex 3.81246 0.23986 1
      vertex 3.81246 0.23986 0
    endloop
  endfacet
  facet normal -0.999507 -0.0314106 0
    outer loop
      vertex 3.81246 0.23986 1
      vertex 3.82 0 0
      vertex 3.82 0 1
    endloop
  endfacet
  facet normal -0.960294 0.278991 0
    outer loop
      vertex 3.63304 -1.18044 0
      vertex 3.69999 -0.949995 1
      vertex 3.69999 -0.949995 0
    endloop
  endfacet
  facet normal -0.960294 0.278991 0
    outer loop
      vertex 3.69999 -0.949995 1
      vertex 3.63304 -1.18044 0
      vertex 3.63304 -1.18044 1
    endloop
  endfacet
  facet normal -0.0941086 0.995562 0
    outer loop
      vertex 0.478772 -3.78988 0
      vertex 0.23986 -3.81246 1
      vertex 0.478772 -3.78988 1
    endloop
  endfacet
  facet normal -0.0941086 0.995562 0
    outer loop
      vertex 0.23986 -3.81246 1
      vertex 0.478772 -3.78988 0
      vertex 0.23986 -3.81246 0
    endloop
  endfacet
  facet normal -0.995562 -0.0941086 0
    outer loop
      vertex 3.81246 0.23986 0
      vertex 3.78988 0.478772 1
      vertex 3.78988 0.478772 0
    endloop
  endfacet
  facet normal -0.995562 -0.0941086 0
    outer loop
      vertex 3.78988 0.478772 1
      vertex 3.81246 0.23986 0
      vertex 3.81246 0.23986 1
    endloop
  endfacet
  facet normal -0.891007 -0.45399 0
    outer loop
      vertex 3.45644 1.62648 0
      vertex 3.34749 1.8403 1
      vertex 3.34749 1.8403 0
    endloop
  endfacet
  facet normal -0.891007 -0.45399 0
    outer loop
      vertex 3.34749 1.8403 1
      vertex 3.45644 1.62648 0
      vertex 3.45644 1.62648 1
    endloop
  endfacet
  facet normal -0.827081 -0.562083 0
    outer loop
      vertex 3.22533 2.04686 0
      vertex 3.09044 2.24534 1
      vertex 3.09044 2.24534 0
    endloop
  endfacet
  facet normal -0.827081 -0.562083 0
    outer loop
      vertex 3.09044 2.24534 1
      vertex 3.22533 2.04686 0
      vertex 3.22533 2.04686 1
    endloop
  endfacet
  facet normal -0.661314 -0.750109 0
    outer loop
      vertex 2.43496 2.94336 0
      vertex 2.61497 2.78466 1
      vertex 2.43496 2.94336 1
    endloop
  endfacet
  facet normal -0.661314 -0.750109 -0
    outer loop
      vertex 2.61497 2.78466 1
      vertex 2.43496 2.94336 0
      vertex 2.61497 2.78466 0
    endloop
  endfacet
  facet normal -0.750109 -0.661314 0
    outer loop
      vertex 2.94336 2.43496 0
      vertex 2.78466 2.61497 1
      vertex 2.78466 2.61497 0
    endloop
  endfacet
  facet normal -0.750109 -0.661314 0
    outer loop
      vertex 2.78466 2.61497 1
      vertex 2.94336 2.43496 0
      vertex 2.94336 2.43496 1
    endloop
  endfacet
  facet normal -0.0314104 -0.999507 0
    outer loop
      vertex 0.0164467 3.81948 0
      vertex 0.23986 3.81246 1
      vertex 0.0164467 3.81948 1
    endloop
  endfacet
  facet normal -0.0314104 -0.999507 -0
    outer loop
      vertex 0.23986 3.81246 1
      vertex 0.0164467 3.81948 0
      vertex 0.23986 3.81246 0
    endloop
  endfacet
  facet normal -0.218141 -0.975917 0
    outer loop
      vertex 0.715796 3.75234 0
      vertex 0.949995 3.69999 1
      vertex 0.715796 3.75234 1
    endloop
  endfacet
  facet normal -0.218141 -0.975917 -0
    outer loop
      vertex 0.949995 3.69999 1
      vertex 0.715796 3.75234 0
      vertex 0.949995 3.69999 0
    endloop
  endfacet
  facet normal -0.397147 -0.917755 0
    outer loop
      vertex 1.40624 3.55175 0
      vertex 1.62648 3.45644 1
      vertex 1.40624 3.55175 1
    endloop
  endfacet
  facet normal -0.397147 -0.917755 -0
    outer loop
      vertex 1.62648 3.45644 1
      vertex 1.40624 3.55175 0
      vertex 1.62648 3.45644 0
    endloop
  endfacet
  facet normal -0.562083 -0.827081 0
    outer loop
      vertex 2.04686 3.22533 0
      vertex 2.24534 3.09044 1
      vertex 2.04686 3.22533 1
    endloop
  endfacet
  facet normal -0.562083 -0.827081 -0
    outer loop
      vertex 2.24534 3.09044 1
      vertex 2.04686 3.22533 0
      vertex 2.24534 3.09044 0
    endloop
  endfacet
  facet normal -0.995562 0.0941086 0
    outer loop
      vertex 3.78988 -0.478772 0
      vertex 3.81246 -0.23986 1
      vertex 3.81246 -0.23986 0
    endloop
  endfacet
  facet normal -0.995562 0.0941086 0
    outer loop
      vertex 3.81246 -0.23986 1
      vertex 3.78988 -0.478772 0
      vertex 3.78988 -0.478772 1
    endloop
  endfacet
  facet normal -0.987688 0.156436 0
    outer loop
      vertex 3.75234 -0.715796 0
      vertex 3.78988 -0.478772 1
      vertex 3.78988 -0.478772 0
    endloop
  endfacet
  facet normal -0.987688 0.156436 0
    outer loop
      vertex 3.78988 -0.478772 1
      vertex 3.75234 -0.715796 0
      vertex 3.75234 -0.715796 1
    endloop
  endfacet
  facet normal -0.94088 0.33874 0
    outer loop
      vertex 3.55175 -1.40624 0
      vertex 3.63304 -1.18044 1
      vertex 3.63304 -1.18044 0
    endloop
  endfacet
  facet normal -0.94088 0.33874 0
    outer loop
      vertex 3.63304 -1.18044 1
      vertex 3.55175 -1.40624 0
      vertex 3.55175 -1.40624 1
    endloop
  endfacet
  facet normal -0.790155 0.612907 0
    outer loop
      vertex 2.94336 -2.43496 0
      vertex 3.09044 -2.24534 1
      vertex 3.09044 -2.24534 0
    endloop
  endfacet
  facet normal -0.790155 0.612907 0
    outer loop
      vertex 3.09044 -2.24534 1
      vertex 2.94336 -2.43496 0
      vertex 2.94336 -2.43496 1
    endloop
  endfacet
  facet normal -0.397147 0.917755 0
    outer loop
      vertex 1.62648 -3.45644 0
      vertex 1.40624 -3.55175 1
      vertex 1.62648 -3.45644 1
    endloop
  endfacet
  facet normal -0.397147 0.917755 0
    outer loop
      vertex 1.40624 -3.55175 1
      vertex 1.62648 -3.45644 0
      vertex 1.40624 -3.55175 0
    endloop
  endfacet
  facet normal -0.975917 -0.218141 0
    outer loop
      vertex 3.75234 0.715796 0
      vertex 3.69999 0.949995 1
      vertex 3.69999 0.949995 0
    endloop
  endfacet
  facet normal -0.975917 -0.218141 0
    outer loop
      vertex 3.69999 0.949995 1
      vertex 3.75234 0.715796 0
      vertex 3.75234 0.715796 1
    endloop
  endfacet
  facet normal -0.917755 -0.397147 0
    outer loop
      vertex 3.55175 1.40624 0
      vertex 3.45644 1.62648 1
      vertex 3.45644 1.62648 0
    endloop
  endfacet
  facet normal -0.917755 -0.397147 0
    outer loop
      vertex 3.45644 1.62648 1
      vertex 3.55175 1.40624 0
      vertex 3.55175 1.40624 1
    endloop
  endfacet
  facet normal -0.975917 0.218141 0
    outer loop
      vertex 3.69999 -0.949995 0
      vertex 3.75234 -0.715796 1
      vertex 3.75234 -0.715796 0
    endloop
  endfacet
  facet normal -0.975917 0.218141 0
    outer loop
      vertex 3.75234 -0.715796 1
      vertex 3.69999 -0.949995 0
      vertex 3.69999 -0.949995 1
    endloop
  endfacet
  facet normal -0.891007 0.45399 0
    outer loop
      vertex 3.34749 -1.8403 0
      vertex 3.45644 -1.62648 1
      vertex 3.45644 -1.62648 0
    endloop
  endfacet
  facet normal -0.891007 0.45399 0
    outer loop
      vertex 3.45644 -1.62648 1
      vertex 3.34749 -1.8403 0
      vertex 3.34749 -1.8403 1
    endloop
  endfacet
  facet normal -0.917755 0.397147 0
    outer loop
      vertex 3.45644 -1.62648 0
      vertex 3.55175 -1.40624 1
      vertex 3.55175 -1.40624 0
    endloop
  endfacet
  facet normal -0.917755 0.397147 0
    outer loop
      vertex 3.55175 -1.40624 1
      vertex 3.45644 -1.62648 0
      vertex 3.45644 -1.62648 1
    endloop
  endfacet
  facet normal -0.827081 0.562083 0
    outer loop
      vertex 3.09044 -2.24534 0
      vertex 3.22533 -2.04686 1
      vertex 3.22533 -2.04686 0
    endloop
  endfacet
  facet normal -0.827081 0.562083 0
    outer loop
      vertex 3.22533 -2.04686 1
      vertex 3.09044 -2.24534 0
      vertex 3.09044 -2.24534 1
    endloop
  endfacet
  facet normal -0.156436 0.987688 0
    outer loop
      vertex 0.715796 -3.75234 0
      vertex 0.478772 -3.78988 1
      vertex 0.715796 -3.75234 1
    endloop
  endfacet
  facet normal -0.156436 0.987688 0
    outer loop
      vertex 0.478772 -3.78988 1
      vertex 0.715796 -3.75234 0
      vertex 0.478772 -3.78988 0
    endloop
  endfacet
  facet normal -0.45399 0.891007 0
    outer loop
      vertex 1.8403 -3.34749 0
      vertex 1.62648 -3.45644 1
      vertex 1.8403 -3.34749 1
    endloop
  endfacet
  facet normal -0.45399 0.891007 0
    outer loop
      vertex 1.62648 -3.45644 1
      vertex 1.8403 -3.34749 0
      vertex 1.62648 -3.45644 0
    endloop
  endfacet
  facet normal -0.960294 -0.278991 0
    outer loop
      vertex 3.69999 0.949995 0
      vertex 3.63304 1.18044 1
      vertex 3.63304 1.18044 0
    endloop
  endfacet
  facet normal -0.960294 -0.278991 0
    outer loop
      vertex 3.63304 1.18044 1
      vertex 3.69999 0.949995 0
      vertex 3.69999 0.949995 1
    endloop
  endfacet
  facet normal -0.509042 0.860742 0
    outer loop
      vertex 2.04686 -3.22533 0
      vertex 1.8403 -3.34749 1
      vertex 2.04686 -3.22533 1
    endloop
  endfacet
  facet normal -0.509042 0.860742 0
    outer loop
      vertex 1.8403 -3.34749 1
      vertex 2.04686 -3.22533 0
      vertex 1.8403 -3.34749 0
    endloop
  endfacet
  facet normal -0.661314 0.750109 0
    outer loop
      vertex 2.61497 -2.78466 0
      vertex 2.43496 -2.94336 1
      vertex 2.61497 -2.78466 1
    endloop
  endfacet
  facet normal -0.661314 0.750109 0
    outer loop
      vertex 2.43496 -2.94336 1
      vertex 2.61497 -2.78466 0
      vertex 2.43496 -2.94336 0
    endloop
  endfacet
  facet normal -0.860742 0.509042 0
    outer loop
      vertex 3.22533 -2.04686 0
      vertex 3.34749 -1.8403 1
      vertex 3.34749 -1.8403 0
    endloop
  endfacet
  facet normal -0.860742 0.509042 0
    outer loop
      vertex 3.34749 -1.8403 1
      vertex 3.22533 -2.04686 0
      vertex 3.22533 -2.04686 1
    endloop
  endfacet
  facet normal -0.0314104 0.999507 0
    outer loop
      vertex 0.23986 -3.81246 0
      vertex 0.0164467 -3.81948 1
      vertex 0.23986 -3.81246 1
    endloop
  endfacet
  facet normal -0.0314104 0.999507 0
    outer loop
      vertex 0.0164467 -3.81948 1
      vertex 0.23986 -3.81246 0
      vertex 0.0164467 -3.81948 0
    endloop
  endfacet
  facet normal -0.218141 0.975917 0
    outer loop
      vertex 0.949995 -3.69999 0
      vertex 0.715796 -3.75234 1
      vertex 0.949995 -3.69999 1
    endloop
  endfacet
  facet normal -0.218141 0.975917 0
    outer loop
      vertex 0.715796 -3.75234 1
      vertex 0.949995 -3.69999 0
      vertex 0.715796 -3.75234 0
    endloop
  endfacet
  facet normal -0.33874 0.94088 0
    outer loop
      vertex 1.40624 -3.55175 0
      vertex 1.18044 -3.63304 1
      vertex 1.40624 -3.55175 1
    endloop
  endfacet
  facet normal -0.33874 0.94088 0
    outer loop
      vertex 1.18044 -3.63304 1
      vertex 1.40624 -3.55175 0
      vertex 1.18044 -3.63304 0
    endloop
  endfacet
  facet normal -0.278991 0.960294 0
    outer loop
      vertex 1.18044 -3.63304 0
      vertex 0.949995 -3.69999 1
      vertex 1.18044 -3.63304 1
    endloop
  endfacet
  facet normal -0.278991 0.960294 0
    outer loop
      vertex 0.949995 -3.69999 1
      vertex 1.18044 -3.63304 0
      vertex 0.949995 -3.69999 0
    endloop
  endfacet
  facet normal -0.987688 -0.156436 0
    outer loop
      vertex 3.78988 0.478772 0
      vertex 3.75234 0.715796 1
      vertex 3.75234 0.715796 0
    endloop
  endfacet
  facet normal -0.987688 -0.156436 0
    outer loop
      vertex 3.75234 0.715796 1
      vertex 3.78988 0.478772 0
      vertex 3.78988 0.478772 1
    endloop
  endfacet
  facet normal -0.612907 0.790155 0
    outer loop
      vertex 2.43496 -2.94336 0
      vertex 2.24534 -3.09044 1
      vertex 2.43496 -2.94336 1
    endloop
  endfacet
  facet normal -0.612907 0.790155 0
    outer loop
      vertex 2.24534 -3.09044 1
      vertex 2.43496 -2.94336 0
      vertex 2.24534 -3.09044 0
    endloop
  endfacet
  facet normal -0.562083 0.827081 0
    outer loop
      vertex 2.24534 -3.09044 0
      vertex 2.04686 -3.22533 1
      vertex 2.24534 -3.09044 1
    endloop
  endfacet
  facet normal -0.562083 0.827081 0
    outer loop
      vertex 2.04686 -3.22533 1
      vertex 2.24534 -3.09044 0
      vertex 2.04686 -3.22533 0
    endloop
  endfacet
  facet normal -0.750109 0.661314 0
    outer loop
      vertex 2.78466 -2.61497 0
      vertex 2.94336 -2.43496 1
      vertex 2.94336 -2.43496 0
    endloop
  endfacet
  facet normal -0.750109 0.661314 0
    outer loop
      vertex 2.94336 -2.43496 1
      vertex 2.78466 -2.61497 0
      vertex 2.78466 -2.61497 1
    endloop
  endfacet
  facet normal -0.707107 0.707107 0
    outer loop
      vertex 2.61497 -2.78466 0
      vertex 2.78466 -2.61497 1
      vertex 2.78466 -2.61497 0
    endloop
  endfacet
  facet normal -0.707107 0.707107 0
    outer loop
      vertex 2.78466 -2.61497 1
      vertex 2.61497 -2.78466 0
      vertex 2.61497 -2.78466 1
    endloop
  endfacet
endsolid OpenSCAD_Model
