solid OpenSCAD_Model
  facet normal -0.707107 -0.707107 0
    outer loop
      vertex -2.47487 -3.18198 0
      vertex -2.82843 -2.82843 1
      vertex -2.82843 -2.82843 0
    endloop
  endfacet
  facet normal -0.707107 -0.707107 0
    outer loop
      vertex -2.82843 -2.82843 1
      vertex -2.47487 -3.18198 0
      vertex -2.47487 -3.18198 1
    endloop
  endfacet
  facet normal 0 0 1
    outer loop
      vertex -2.47487 3.18198 1
      vertex 0 0 1
      vertex 0.707107 5.55112e-17 1
    endloop
  endfacet
  facet normal 0 0 1
    outer loop
      vertex 0 0 1
      vertex -2.47487 3.18198 1
      vertex -2.82843 2.82843 1
    endloop
  endfacet
  facet normal -0 0 1
    outer loop
      vertex 0 0 1
      vertex -2.47487 -3.18198 1
      vertex 0.707107 5.55112e-17 1
    endloop
  endfacet
  facet normal 0 -0 1
    outer loop
      vertex -2.47487 -3.18198 1
      vertex 0 0 1
      vertex -2.82843 -2.82843 1
    endloop
  endfacet
  facet normal -0.707107 -0.707107 0
    outer loop
      vertex 0 0 0
      vertex -2.82843 2.82843 1
      vertex -2.82843 2.82843 0
    endloop
  endfacet
  facet normal -0.707107 -0.707107 0
    outer loop
      vertex -2.82843 2.82843 1
      vertex 0 0 0
      vertex 0 0 1
    endloop
  endfacet
  facet normal -0.707107 0.707107 0
    outer loop
      vertex -2.82843 -2.82843 0
      vertex 0 0 1
      vertex 0 0 0
    endloop
  endfacet
  facet normal -0.707107 0.707107 0
    outer loop
      vertex 0 0 1
      vertex -2.82843 -2.82843 0
      vertex -2.82843 -2.82843 1
    endloop
  endfacet
  facet normal 0 0 -1
    outer loop
      vertex -2.47487 -3.18198 0
      vertex 0 0 0
      vertex 0.707107 5.55112e-17 0
    endloop
  endfacet
  facet normal 0 0 -1
    outer loop
      vertex 0 0 0
      vertex -2.47487 -3.18198 0
      vertex -2.82843 -2.82843 0
    endloop
  endfacet
  facet normal 0 0 -1
    outer loop
      vertex 0 0 0
      vertex -2.47487 3.18198 0
      vertex 0.707107 5.55112e-17 0
    endloop
  endfacet
  facet normal 0 -0 -1
    outer loop
      vertex -2.47487 3.18198 0
      vertex 0 0 0
      vertex -2.82843 2.82843 0
    endloop
  endfacet
  facet normal 0.707107 -0.707107 0
    outer loop
      vertex -2.47487 -3.18198 1
      vertex 0.707107 5.55112e-17 0
      vertex 0.707107 5.55112e-17 1
    endloop
  endfacet
  facet normal 0.707107 -0.707107 0
    outer loop
      vertex 0.707107 5.55112e-17 0
      vertex -2.47487 -3.18198 1
      vertex -2.47487 -3.18198 0
    endloop
  endfacet
  facet normal 0.707107 0.707107 0
    outer loop
      vertex 0.707107 5.55112e-17 1
      vertex -2.47487 3.18198 0
      vertex -2.47487 3.18198 1
    endloop
  endfacet
  facet normal 0.707107 0.707107 0
    outer loop
      vertex -2.47487 3.18198 0
      vertex 0.707107 5.55112e-17 1
      vertex 0.707107 5.55112e-17 0
    endloop
  endfacet
  facet normal -0.707107 0.707107 0
    outer loop
      vertex -2.82843 2.82843 0
      vertex -2.47487 3.18198 1
      vertex -2.47487 3.18198 0
    endloop
  endfacet
  facet normal -0.707107 0.707107 0
    outer loop
      vertex -2.47487 3.18198 1
      vertex -2.82843 2.82843 0
      vertex -2.82843 2.82843 1
    endloop
  endfacet
endsolid OpenSCAD_Model
