solid OpenSCAD_Model
  facet normal -1 0 0
    outer loop
      vertex -1.5 1 0
      vertex -1.5 1.5 1
      vertex -1.5 1.5 0
    endloop
  endfacet
  facet normal -1 -0 0
    outer loop
      vertex -1.5 1.5 1
      vertex -1.5 1 0
      vertex -1.5 1 1
    endloop
  endfacet
  facet normal 0 0 1
    outer loop
      vertex 2.5 1.5 1
      vertex 2 1 1
      vertex 2.5 -1 1
    endloop
  endfacet
  facet normal -0 0 1
    outer loop
      vertex -1.5 1.5 1
      vertex 2 1 1
      vertex 2.5 1.5 1
    endloop
  endfacet
  facet normal 0 0 1
    outer loop
      vertex 2 1 1
      vertex -1.5 1.5 1
      vertex -1.5 1 1
    endloop
  endfacet
  facet normal 0 0 1
    outer loop
      vertex 2.5 -1 1
      vertex 2 1 1
      vertex 2 -1 1
    endloop
  endfacet
  facet normal 1 -0 0
    outer loop
      vertex 2.5 -1 1
      vertex 2.5 1.5 0
      vertex 2.5 1.5 1
    endloop
  endfacet
  facet normal 1 0 0
    outer loop
      vertex 2.5 1.5 0
      vertex 2.5 -1 1
      vertex 2.5 -1 0
    endloop
  endfacet
  facet normal 0 0 -1
    outer loop
      vertex 2 1 0
      vertex 2.5 -1 0
      vertex 2 -1 0
    endloop
  endfacet
  facet normal 0 0 -1
    outer loop
      vertex 2.5 -1 0
      vertex 2 1 0
      vertex 2.5 1.5 0
    endloop
  endfacet
  facet normal 0 0 -1
    outer loop
      vertex -1.5 1.5 0
      vertex 2 1 0
      vertex -1.5 1 0
    endloop
  endfacet
  facet normal 0 0 -1
    outer loop
      vertex 2 1 0
      vertex -1.5 1.5 0
      vertex 2.5 1.5 0
    endloop
  endfacet
  facet normal 0 -1 0
    outer loop
      vertex -1.5 1 0
      vertex 2 1 1
      vertex -1.5 1 1
    endloop
  endfacet
  facet normal 0 -1 -0
    outer loop
      vertex 2 1 1
      vertex -1.5 1 0
      vertex 2 1 0
    endloop
  endfacet
  facet normal 0 1 -0
    outer loop
      vertex 2.5 1.5 0
      vertex -1.5 1.5 1
      vertex 2.5 1.5 1
    endloop
  endfacet
  facet normal 0 1 0
    outer loop
      vertex -1.5 1.5 1
      vertex 2.5 1.5 0
      vertex -1.5 1.5 0
    endloop
  endfacet
  facet normal -1 0 0
    outer loop
      vertex 2 -1 0
      vertex 2 1 1
      vertex 2 1 0
    endloop
  endfacet
  facet normal -1 -0 0
    outer loop
      vertex 2 1 1
      vertex 2 -1 0
      vertex 2 -1 1
    endloop
  endfacet
  facet normal 0 -1 0
    outer loop
      vertex 2 -1 0
      vertex 2.5 -1 1
      vertex 2 -1 1
    endloop
  endfacet
  facet normal 0 -1 -0
    outer loop
      vertex 2.5 -1 1
      vertex 2 -1 0
      vertex 2.5 -1 0
    endloop
  endfacet
endsolid OpenSCAD_Model
